<svg xmlns="http://www.w3.org/2000/svg" xmlns:xlink="http://www.w3.org/1999/xlink" viewBox="0 0 36.07 19.59"><defs><style>.cls-1{fill:url(#標準藍);}</style><linearGradient id="標準藍" x1="18.03" y1="19.59" x2="18.03" gradientUnits="userSpaceOnUse"><stop offset="0" stop-color="#4ca2be"/><stop offset="1" stop-color="#7cd4ea"/></linearGradient></defs><title>資產 40</title><g id="圖層_2" data-name="圖層 2"><g id="分離模式"><path class="cls-1" d="M0,11.46c0-.79,0-1.57,0-2.36A1.68,1.68,0,0,1,1.05,7.36c1-.41,2-.68,3-1.05a2,2,0,0,0,.82-.55C6.18,4.1,7.4,2.4,8.69.76A2.7,2.7,0,0,1,9.9.09a3.24,3.24,0,0,1,1-.07c2.8,0,5.59,0,8.38,0a4,4,0,0,1,3,1.18c2,1.87,3.93,3.74,5.91,5.58a2.54,2.54,0,0,0,1,.54c1.79.48,3.62.86,5.39,1.42,1.33.42,1.44.72,1.44,2.09a19.51,19.51,0,0,0,0,2.42A3.08,3.08,0,0,1,34.8,16a3.55,3.55,0,0,0-.72,1,4.36,4.36,0,0,1-4,2.65,4.23,4.23,0,0,1-4.06-2.47.82.82,0,0,0-.84-.53q-6.46,0-12.92,0a.76.76,0,0,0-.8.49,4.25,4.25,0,0,1-4,2.51,4.26,4.26,0,0,1-4-2.54.73.73,0,0,0-.76-.46A3.11,3.11,0,0,1,0,13.82ZM16.55,7.53l.36,0h8a.61.61,0,0,0,.19,0c.17,0,.41-.08.48-.2s-.08-.32-.16-.48a1.27,1.27,0,0,0-.25-.27c-1.22-1.15-2.43-2.32-3.67-3.44a2.17,2.17,0,0,0-1.12-.62c-1.24-.07-2.5,0-3.78,0Zm-3.06,0V2.48c-1,0-1.93,0-2.87,0a1,1,0,0,0-.64.35C9,4.09,8.09,5.34,7.2,6.63c-.36.54-.11.91.56.92,1.16,0,2.32,0,3.47,0Zm16.62,5.28a2.26,2.26,0,0,0-.17,4.51,2.26,2.26,0,0,0,.17-4.51ZM9.74,15.12a2.24,2.24,0,0,0-2.21-2.28,2.26,2.26,0,1,0,2.21,2.28Z"/></g></g></svg>