<svg xmlns="http://www.w3.org/2000/svg" viewBox="0 0 70 70"><defs><style>.cls-1{fill:#d98323;}.cls-2{fill:#fff;}</style></defs><title>資產 37</title><g id="圖層_2" data-name="圖層 2"><g id="分離模式"><circle class="cls-1" cx="35" cy="35" r="35"/><path class="cls-2" d="M26.49,53.05c-.22-.7,2.07-1.36,2.45-1.84.1,0,.69-.87.8-.91l.3-.18c.1-1.21-.55-2.86-1.1-4.55l0-.26c-.66-2.05-1.22-4.18-1.7-5.65-.18-.55-.48-1.1-.71-1.84-.15-.44-.18-.91-.32-1.36C26,35.8,25.2,34,24.32,34.25c-.33.11-1.06,1.23-1.21,1.52l-.61.77a19.31,19.31,0,0,1-2.62,3.31c0,.14-.81.75-.92.91-.59.68-1,1.66-1.89,1.94-.22.08-.81.27-.91-.07a.87.87,0,0,1,0-.37c1.63-1,2.26-2.92,3.3-4.35.31-.67,1-.76,1.29-1.79a30.22,30.22,0,0,0,1.75-3.24c.85-1.65.85-3,1.66-4.67-.07-.46,1-1.49.85-1.89l0-.08c.17-.5.6-.92.53-1.38-.05-.15.36-.77.34-.84a5.82,5.82,0,0,1,.22-.81c-.15-.35.49-.88.37-1.25a13.27,13.27,0,0,0-.14-3.44c-.18-.59-.69-.91-.83-1.35-.08-.22,0-.73.15-.78a5,5,0,0,1,2.2-.22c.14-.05.58.3.73.25.85.37,3.41.76,3.71,1.72.12.37.07.71.19,1.08a2.16,2.16,0,0,0,.46.66A8.77,8.77,0,0,0,37.19,23c1,0,1.05.51,1.67.68.37.12.81,0,1.27.15a1.57,1.57,0,0,0,1.58.39c-.2-.26,1.17.59,1.83.38,2.06-.66,1.64-.2,2.22-.15.15,0,1.37,0,1.48-.06a17,17,0,0,1,2,.09c.48-.16,2.95-1.07,3.29,0,.19.59-1.88,1.34-2.17,1.59s-.62.69-.89,1S49,28.18,48.3,28.39s-1.41-.2-2.16-.28c.42.19-2.22-.34-3.56-.47a3.59,3.59,0,0,1-2.29-.56c-.18-.55-1-.88-1.12-1.1s0-.12,0-.16,0,0-.1-.05c-.73-.25-1.31-1-2.11-.78.1.33.26.69.35,1s.28.88-.12,1a2.18,2.18,0,0,1-.3.06A7.38,7.38,0,0,1,35,27.9l-.73.24a1.54,1.54,0,0,0-.76.41l-2.86.92a1.7,1.7,0,0,1-1.61-.7,1.68,1.68,0,0,1,.91-.7l3.75-1.21.26.08c.26-.2.7-1.36,1.51-1.62,0,0,.19.1.26.08L35.58,25l.81-.26c0-.08-.07-.71-.09-.78-.9-.89-1.93-1.57-2.88-2.4-.13-.4-1.32-1.2-1.72-1.07-.08,0-.77.66-.84.68-.73.52-.79,1.95-1.17,2.4a28.26,28.26,0,0,0-1.37,2.55c.19.59-1.32,2.45-1.23,2.34,0,.65-1.95,2.66-1.62,3.68.12.37.1.42.26.41a17.29,17.29,0,0,0,1.83-.35c.12.37,1.79.15,2.53-.08.37-.12.59-.44.95-.56s.57,0,1-.15c.59-.19,1-.56,1.62-.77l.51.08c.22-.07.24-.24.46-.31s.42,0,.64-.05.37-.36.59-.43c.4,0,.58-.35.91-.45.81-.26,1.21-.39,1.48-1.21.45-.1.54-.46.86-.84.29-.1,3.12-.12,3.6,1.35.21.66-.65.77-.2,2.17.52,1.62.76,2.59,1.39,4.54,0,.6-.64.81-1,1.17l-5.22,1.68c0,.36-1.36.56-1.22,1,.2.63.88,1.1,1,1.38,1,.3,2,1.67,3.1,1.31a7.14,7.14,0,0,0,1.89-1.94c-.06-.67.59-.92,1-1.42a4,4,0,0,0,.64-1.79c-.25,0,.65-.49.78-.85,1.34-.11,3,1.84,3.13,2.43s-1.62.73-2.4,1.59c-.37,0-.69.87-1.58,1.15-.59.44-1.47.72-1.69,1.52a2,2,0,0,0,.89.52c-.06.19.89.12,2.46.59,1-.33,1.35.54,3.07,0a15.05,15.05,0,0,1,2.38-.19,10.19,10.19,0,0,1,2.06,0c.13-.21.13-.21.5-.32.11,0,.62,0,.73,0,.3-.21.41-.37.59-.43l.7-.22a.87.87,0,0,1,.69,0c.54.52-2,1.84-2.43,2.25-.11,0-.63.69-.74.72-2,.64-1,2.18-2.47,2.66-.29.1-.85-.13-1.29-.23-.53-.27-1.54,0-1.83-.38A6.74,6.74,0,0,1,45,47.07a5.3,5.3,0,0,1-1.42-.35c-.51-.2-1.09-.74-1.36-.7-.51.17-1.38-.4-2.11-.78-.48,0-1.57-.71-2.19-.51-.44.14-.62.85-.85,1.17-1.75,2.35-3.22,5-4.81,7.46-.4.62-.44,1.77-1.17,2-.55.17-1.69.05-2-.57C28.14,54.26,26.74,53.82,26.49,53.05Zm3.8-17.28c1.94-.62,1.91-.73,2.53-.93,0-.15.4,0,.55-.06,1.25-.4,2.35-1,3.45-1.36.45-.14,1.11-.23,1.18-.13,1.08-.15,1-1.63.79-2.32s-.63-.94-1.95-.51c-.07,0-.46.31-.61.36-1.08.43-2.13.93-3.23,1.28-.23.08-.35-.05-.49,0s-.54.33-.69.38c-1.47.48-2.52.37-2.81,2.36C29.32,35.8,29.68,35.64,30.29,35.77ZM33,39.16c.73-.24,1.25-.65,1.91-.86s1-.2,1.58-.39c.29-.09.62-.32,1.06-.47a1.79,1.79,0,0,0,.48,0,2.44,2.44,0,0,0,.88-.52c1.66-.54.85-.89,1-1.56-.24-1.13-.42-1.44-1.3-1.52-.95.31-3.6,1.4-4,1.52-.66.21-1.28.29-1.94.5A7.65,7.65,0,0,0,30.2,37c-.16,0-.06.95,0,1.09.26.69.18,1.2.86,1.55C31.86,39.4,32.34,39.37,33,39.16ZM33.55,47c.7-.22.89-1,1.66-1.26.37-.89,2.37-1.45,2-2.74-.25-.77-.56-1.24-.9-2.26,0-.11-.54-.68-.57-.79,0-.38-.73-.5-1-.4a8.48,8.48,0,0,1-1.51.85c-2.43.78-1.87,1.13-1.42,2.52a26.08,26.08,0,0,1,.71,3C32.61,46.37,33,47.22,33.55,47Z"/></g></g></svg>