<svg xmlns="http://www.w3.org/2000/svg" xmlns:xlink="http://www.w3.org/1999/xlink" viewBox="0 0 78.03 62.39"><defs><style>.cls-1{fill:url(#標準藍);}.cls-2{fill:url(#標準藍-2);}.cls-3{fill:url(#標準藍-3);}</style><linearGradient id="標準藍" x1="47.56" y1="62.39" x2="47.56" y2="6.06" gradientUnits="userSpaceOnUse"><stop offset="0" stop-color="#4ca2be"/><stop offset="1" stop-color="#7cd4ea"/></linearGradient><linearGradient id="標準藍-2" x1="55.26" y1="13.77" x2="55.26" y2="0" xlink:href="#標準藍"/><linearGradient id="標準藍-3" x1="27.69" y1="49.93" x2="27.69" y2="11.87" xlink:href="#標準藍"/></defs><title>資產 42</title><g id="圖層_2" data-name="圖層 2"><g id="分離模式"><path class="cls-1" d="M78,10.31C76.43,8,75.47,7.9,73,9.68a13.44,13.44,0,0,0-1.81-2.87C69.89,5.6,68,5.9,66.53,7.35c-2.63,2.6-5.21,5.25-7.86,7.83-1.19,1.16-2,2.39-1.49,4.13.43,1.43,1.4,2.12,3.35,2.5L35.4,46.94,24.73,39.28c-1-.74-2.05-1.51-3.09-2.23-1.65-1.15-3.22-1-4.11.3s-.48,2.71,1.09,3.84Q24.79,45.68,31,50.1l1,.77c-2.21,2.19-4.37,4.33-6.51,6.49a4.74,4.74,0,0,0-1.17,1.46,2.53,2.53,0,0,0,4.18,2.72c2-2,4-4,6-6,.52-.53,1-1.12,1.56-1.77l9.85,7.09c.46.34.92.69,1.41,1a2.55,2.55,0,1,0,2.93-4.16c-2.64-2-5.33-3.86-8-5.78L40,50.2c.57-.6,1-1.1,1.5-1.58Q58.88,31.21,76.26,13.8c.65-.64,1.18-1.4,1.77-2.11Z"/><path class="cls-2" d="M48.42,7a6.84,6.84,0,1,0,13.67-.13A6.91,6.91,0,0,0,55.26,0,6.82,6.82,0,0,0,48.42,7Z"/><path class="cls-3" d="M1.59,42.89q6.84-8.72,13.73-17.4c1.91-2.42,3.7-2.7,6.24-.92,2.11,1.48,4.2,3,6.29,4.47,1-.9,1.74-2,2.69-2.8h0a7.46,7.46,0,0,1,3.79-2.06l10-1.43H20.71a2.45,2.45,0,0,1-2.43-2.43V18.84a2.45,2.45,0,0,1,2.43-2.43H45.15l-5.27-1.25L41,13.89h0c2-2.43,4.54-2.67,7-.67,1.83,1.51,3.63,3,5.43,4.59,2.51,2.14,2.68,5,.36,7.37q-7.8,7.88-15.65,15.72c-1.93,1.92-3.78,2-6,.36-4.15-3-8.33-5.95-12.55-9-.39.44-.7.77-1,1.13Q12.92,40.56,7.27,47.68C4.72,50.89,2,50.65,0,47.07V45.33C.53,44.52,1,43.65,1.59,42.89Z"/></g></g></svg>