<svg xmlns="http://www.w3.org/2000/svg" viewBox="0 0 70 70"><defs><style>.cls-1{fill:#0dac67;}.cls-2{fill:#fff;}</style></defs><title>資產 38</title><g id="圖層_2" data-name="圖層 2"><g id="分離模式"><circle class="cls-1" cx="35" cy="35" r="35"/><path class="cls-2" d="M33.15,34c0,.07,0,.07.07.1a4,4,0,0,1-1.17.66,17.54,17.54,0,0,0-1.88.68c-.22.08-.48.4-.7.47s-.79.22-.95.47c-.11,0-.27.17-.49,0-.11,0-.81.5-.92.54a16.57,16.57,0,0,1-3.34,1.32l-.29-.15-.06.18.13,0-.17.21L21.72,39a1.07,1.07,0,0,1-.75.56c-.44.15-.73.48-1.21.64-.25,0-1.73.92-2,.15-.09-.29-1.71-1.15-1.63-1.3l0-.13c.4-.5,5-2,5.21-2l3.31-1.06a5.93,5.93,0,0,1,1.14-.61l.48,0c1.07-.42,2-.89,3.12-1.25a3.19,3.19,0,0,0,.91.07c.3,0,.34-.71,1-.92,0,0,.13,0,.17,0,.22-.07,0-1.39-.15-2-.42-1.16-.31-1.35-1-2-.15-.2-.55-.19-.84-.34,0,0,0,.24-.15.29s-.44,0-.62-.16c-.12.12-.2.26-.3.34l-.4.13a1.45,1.45,0,0,0-1.15,1.46c.36.61-.78,2.12-1.6,2.22-.61-.29-1.2-.59-1.2-.71l-1-3.56a.12.12,0,0,1-.15-.08c.08-.39-.26-.8-.1-1.06,0-.11-.21-.29-.25-.4l.33-.11L22.33,27c-.29-.52-1.13-2.76-1.24-3.09s0-.44-.1-.7c-.07-.58-.68-1-.83-1.43a9.15,9.15,0,0,1-.78-1.7c-.12-.36-.27-.81.18-1,1-.32,2.73.83,3.8.48l.15-.29a4.44,4.44,0,0,0,.63-.16c2.13-.69,4-1.89,6.18-2.6,2-.85,3.09-1,4.34-3.51.15-.29.53-.25.63-.69.69.39,1.26-.12,1.8.31a8.75,8.75,0,0,1,2.37.54c.2.62-.82,1-.56,1.8l.11.33a.48.48,0,0,1,0,.35c.64,2,.55,2.1.92,2.47a8.83,8.83,0,0,1,.29,1.28,3,3,0,0,1,.6,1.1l0,.26c.21.66.65,1.29.87,1.95a2.64,2.64,0,0,1,.09,2.16c-.62,1.09-1.28,1.83-1.71,1.88-.07.27-.81.63-.73.73a.81.81,0,0,1-.48,0v-.37c-.44.15-1.32-.7-1.34-1.14-.26-.29-1.74.52-1.67.21l-.09.11c-.28.25-1.69.79-1.55,1.23s.11.33.62.41.72.74.86,1.18a3,3,0,0,1,.25,1c.14.44.61.9,1,.76a27.17,27.17,0,0,0,3-1.34c.75-.32,1.51-.61,2.24-1a8.54,8.54,0,0,0,2.62-1.33c.29-.22.29-.59.44-.87,1.47-2.5,1.78-3.29,2.43-4.56.14,0,.25,0,.44.11L48,22l.1.33c0,.11-.52.65-.48.76a.7.7,0,0,0,.21.42c1.16.68,3.81,1.24,4.15,2.31a1.4,1.4,0,0,1,.11.58,30,30,0,0,1-2.91,1.29c-.36.12-.46.2-.69.11-.08,0-.22.31-.22.31-.74.24-5.88,1.9-5.63,2.67.1.33,1.68.71,2.09.82s.62.05.76.49-.46,1.2-.38,1.82c.33,1,.4,2,.77,3.16a4.38,4.38,0,0,0,.54,1.29c.14.44-.5.72-.83.83s-.72.15-1,.25c-.82.34-1.81.82-2.14.92-.11,0-3.91,1.19-3.68,1.92a2.06,2.06,0,0,0,1.43.92,13.28,13.28,0,0,1,.6,1.59c.12.37-.08.76.06,1.2.07.22.51.56.62.93s.46,1.68.81,2.74c-.1.84-.5,2.35-1.35,2.62l-.24-.24a.36.36,0,0,1-.19.14l.21.17c0,.42-1.37,1.17-1.33,1.16-.56.26-.74-.29-1-.47a8.1,8.1,0,0,0-1.31-.8c-.27-.07-.56-.22-.73-.25.22-.56,1.33-.91,1.69-1.27s.18-1,.6-1.17l-.29-.15c-.18-.55-.53-1.53-.74-2.19a3.93,3.93,0,0,1-.25-1.63c-.29-.14-1-2.5-1.26-2.42l-.2.14-.46-.18a8.93,8.93,0,0,1-2.81,1.48c-.85.39-.36.76-1.14,1l-.15-.11.11.37.45-.14a2.85,2.85,0,0,1-.39,1.82c-.1,0-.11,0-.18-.18-.34.31.05.39-.32.51-.07-.23-.3-.56-.52-.49l-.29.26c-.37.2-.61-.41-.77-.89l-.14-.44A43.83,43.83,0,0,0,27.55,42c-.05-.15-.3-.56-.32-.63-.22-.66-.5-1.3.34-1.57.55-.18,1.47,0,2.13-.2a9.75,9.75,0,0,1,2.1-1.16c.66-.21.43.34.8.22.07,0,.22-.07.17-.21-.15,0-.17,0-.22-.17s-.07-.23.15-.3l2.87-.92c1.16-1.43,3.82-1.11,5-3.15.21-1.24.81-1.63.53-2.88a.24.24,0,0,0-.29-.15,2.21,2.21,0,0,1-.7.47l-.47,0a4.34,4.34,0,0,1-1.07.59,12.31,12.31,0,0,1-2.32.62l-.29.34c-.11,0-.12,0-.26,0l-.15.29c-.11,0-.42.06-.53-.15l.06.18c-.22.07-1.14.49-1.36.56a1.41,1.41,0,0,0-.38.21l0-.08c0-.07,0-.11-.07-.1S33.12,33.88,33.15,34Zm-4-6.14c.13-.24,1.56-.46,1.47-.72a1.31,1.31,0,0,0,.63-.08c.07,0,1.25-.65,1.32-.67.63-.2,1.1-.47,1.66-.65,1.21-.39,3.39-.41,2.56-3l-.08-.26.17-.21-.13,0s-.44-1-.7-1.4c-.18-.18,0-.23.13-.36A4.43,4.43,0,0,1,35.49,19c-.19,0,0-.85-.13-1.18-.62-1.91-.64-1.21-1.21-1.48-.34.08-.61.37-.83.44-.5-.29-.66.09-1-.08l.07.21a12,12,0,0,1-2.5,1.05c-.48.16-1.22.88-1.84,1.08s-1.51.73-2.35,1c-.44.15-.32,0-.58.11-.5,1.34-1.71-.42-.37,3.76a2.46,2.46,0,0,0,.9.53,1.07,1.07,0,0,0,.7-.47c.45.14,1.66-1,3-1.47.61-.28.9.12,1.15,0,0-.14-.07-.22-.22-.17l.1-.2,1.26-.64c.19-.39.51-.65.72-1s0-.5.51-.65c.38-.33,1.45.7,1.6,1.18l.1.29h-.25c-.16.26-.17.34-.44.39-.41.25-2.36.84-2.72,1.36a7.56,7.56,0,0,0-2.26,1,5.15,5.15,0,0,0-1.35.36l-.07-.22c-.22.07-.34.43-.42.45s-.15,0-.24,0L26,25c.28.84-.87.32-.35,1.94.07.22.22.29.29.51s0,.26,0,.48.8.59,1.13.48l1.66-.53A1.51,1.51,0,0,0,29.18,27.82ZM25.83,57.56a36.67,36.67,0,0,0,4.08-5.21A6.45,6.45,0,0,0,30.46,51a2.9,2.9,0,0,0,.41-.62c.44-.14,1.33-2.29,1.72-2.58-.11-.61.4-.78.71-1.2s.06-1.32.92-1.43c.22-.08,1.23,1.3,1.35,1.67s-.5.73-.65,1a4.07,4.07,0,0,1-1.11,1.82c-.26.32-.56.91-.82,1.23-1.27,1.47-2.5,3.08-3.45,4a5.7,5.7,0,0,1-.8.91,1.71,1.71,0,0,0-1.07.83c-.51.41-1.17.62-1.62,1-.14.05-.37.36-.52.41s-.43.18-.48,0S25.64,57.7,25.83,57.56ZM31,42.11a5.85,5.85,0,0,0,.61,1.51h.24c.36-.15,1.24-.32,1.93-.54.33-.11.78-.25.86-.6l2-.64.27.08a5.71,5.71,0,0,1,2.74-1.29c.58-.47,1.54-.5,2.08-1.24l-.5-1.54,0-.26c-.42-1.28-.6-1.1-1.31-1.28l-2.42.78L37.25,37a3.24,3.24,0,0,1-1.64.94c-.17.5-1.26.49-1.3.74a1.13,1.13,0,0,1-.39.05,9,9,0,0,1-1,.57c-.29.1-.73,0-1,.07-.63.93-1.93.42-1.51,1.7C30.51,41.38,30.87,41.74,31,42.11ZM33.39,28l.15,0c-.18-.55.15-.54,0-1-.21.07,0,.36-.33.47Zm4,17.1.81-.26s0-.09,0-.32a1.21,1.21,0,0,0-.33-.05C37.52,44.63,37.34,44.85,37.44,45.14Zm11.49,1.57c-.07-.22-.08-.14-.18-.18l-.15.29c-.4-.12-.72-.74-1-1.07-.5-.33-.91-1.09-1.55-1.45L43,42.77a6.23,6.23,0,0,1-1.18-.51l.1-.2a4.82,4.82,0,0,1,2.51.25c.51.08,1-.07,1.47,0l1.64.2c1.24.09,4.58-.13,5,1.3a4.24,4.24,0,0,1-.09,2c-.29,1-1.7,1.16-2.29,2-1,.31-1-.52-1.46-.75Z"/></g></g></svg>