<svg xmlns="http://www.w3.org/2000/svg" xmlns:xlink="http://www.w3.org/1999/xlink" viewBox="0 0 32 57.61"><defs><style>.cls-1{fill:url(#標準藍);}.cls-2{fill:url(#標準藍-2);}</style><linearGradient id="標準藍" x1="16" y1="57.61" x2="16" gradientUnits="userSpaceOnUse"><stop offset="0" stop-color="#4ca2be"/><stop offset="1" stop-color="#7cd4ea"/></linearGradient><linearGradient id="標準藍-2" x1="14.83" y1="14.37" x2="14.83" y2="1.59" xlink:href="#標準藍"/></defs><title>資產 43</title><g id="圖層_2" data-name="圖層 2"><g id="分離模式"><path class="cls-1" d="M32,10.33c-.18.71-.33,1.44-.55,2.13-1.23,3.78-3.93,6.11-7.51,7.53-.66.27-1.37.42-2,.68a.8.8,0,0,0-.44.58A45.12,45.12,0,0,0,24.2,35c.62,1.59.65,1.59-.94,2.28l-2.44,1a6.48,6.48,0,0,0,5.38,4.21,17.38,17.38,0,0,0,2.29.15,2.59,2.59,0,1,1,.2,5.18c-5.19.23-10.15-1.76-12.57-7.29-.08-.19-.18-.37-.3-.62l-2.38.69A30.54,30.54,0,0,0,17.8,52.33l.7,1.05a2.61,2.61,0,1,1-4.31,2.91A35.12,35.12,0,0,1,9,44.8c-.25-1-.46-2-.68-3-.06,0-.09-.06-.11-.06-2.29.18-2.14.32-2.68-2.22a25.81,25.81,0,0,1-.1-8.68,41,41,0,0,1,3-11.66c-.19-.08-.32-.15-.46-.2C3.45,17.43,1.05,14.11.26,9.51A22.91,22.91,0,0,1,.4,1.85,2,2,0,0,1,2.74,0,2.08,2.08,0,0,1,4.37,2.46c-.14,1.66-.29,3.32-.28,5a10.77,10.77,0,0,0,.45,2.8c1,3.38,3.38,5.19,7.33,5.4A24,24,0,0,1,18.21,17a3.07,3.07,0,0,0,1.38.11,12.55,12.55,0,0,0,5.2-2A7.39,7.39,0,0,0,28,9.86c.21-1.41.71-2,1.65-2.22s1.68.24,2.39,1.42Z"/><path class="cls-2" d="M14.84,1.59a6.39,6.39,0,1,1-6.4,6.46A6.36,6.36,0,0,1,14.84,1.59Z"/></g></g></svg>