<svg xmlns="http://www.w3.org/2000/svg" xmlns:xlink="http://www.w3.org/1999/xlink" viewBox="0 0 46.26 40.91"><defs><style>.cls-1{fill:url(#標準藍);}</style><linearGradient id="標準藍" x1="23.13" y1="40.91" x2="23.13" gradientUnits="userSpaceOnUse"><stop offset="0" stop-color="#4ca2be"/><stop offset="1" stop-color="#7cd4ea"/></linearGradient></defs><title>資產 45</title><g id="圖層_2" data-name="圖層 2"><g id="分離模式"><path class="cls-1" d="M46.26,3.25V7.5c0,.16-.06.32-.07.48,0,1-.06,1.93-.12,2.89A29.13,29.13,0,0,1,45,17.63a7.53,7.53,0,0,1-5,5.43,22.94,22.94,0,0,1-3.79.77C35,24,33.81,24,33,24.06c.71.14,1.76.26,2.77.54A7.61,7.61,0,0,1,41,28.82a5,5,0,0,1,.07,4.4,19.23,19.23,0,0,1-2.6,4.1,12.5,12.5,0,0,1-3.29,2.86,3.89,3.89,0,0,1-4.48,0A18.15,18.15,0,0,1,23.42,31c-.09-.23-.16-.46-.22-.63-.66,1.34-1.22,2.72-2,4a16.85,16.85,0,0,1-5.94,6,3.38,3.38,0,0,1-3.43.18,8.21,8.21,0,0,1-1.33-.74A16.16,16.16,0,0,1,5.14,33a4.24,4.24,0,0,1-.28-2.69A7.09,7.09,0,0,1,9.31,25a12.68,12.68,0,0,1,4.34-1c-.33,0-.66,0-1,0-1.65-.17-3.3-.27-4.93-.55a7.83,7.83,0,0,1-6.56-6,31.82,31.82,0,0,1-1-6.64L0,7.5V3.25A1.46,1.46,0,0,0,.07,3,3,3,0,0,1,2.26.28,11.81,11.81,0,0,1,3.7,0h.37l.7.14A14.06,14.06,0,0,1,9.56,2.48a38.47,38.47,0,0,1,7.53,6.83A32,32,0,0,1,23,18.88l.13.22a5,5,0,0,1,.19-.47c.67-1.37,1.26-2.8,2-4.11A39.42,39.42,0,0,1,34.78,3.9C37,2.14,39.3.49,42.19,0h.37a4.67,4.67,0,0,0,.52.08A3.21,3.21,0,0,1,46.14,2.6C46.19,2.82,46.22,3,46.26,3.25Z"/></g></g></svg>