<svg xmlns="http://www.w3.org/2000/svg" xmlns:xlink="http://www.w3.org/1999/xlink" viewBox="0 0 39.52 35.98"><defs><style>.cls-1{fill:url(#標準藍);}</style><linearGradient id="標準藍" x1="-3749.03" y1="35.98" x2="-3749.03" gradientTransform="matrix(-1, 0, 0, 1, -3729.27, 0)" gradientUnits="userSpaceOnUse"><stop offset="0" stop-color="#4ca2be"/><stop offset="1" stop-color="#7cd4ea"/></linearGradient></defs><title>資產 46</title><g id="圖層_2" data-name="圖層 2"><g id="分離模式"><path class="cls-1" d="M14.91,36a41.17,41.17,0,0,0,10.32-5.91c.7-.51,1.09-.93-.06-1.39a1,1,0,0,1-.42-.85c2.47-5.74,5.13-11.36,10.16-15.78-.08,1.19.42,1.78,1.34,1.46.6-.21,1.37-.76,1.49-1.3.22-1-.64-1.49-1.51-1.57a2.82,2.82,0,0,0-1.83.41,10.73,10.73,0,0,0-2.83,2.61c-2,3.18-3.8,6.49-5.66,9.76a9.55,9.55,0,0,1-1.18,1.89c.11-.55.2-1.11.33-1.66a64.57,64.57,0,0,1,6-17,26.53,26.53,0,0,1,3.26-4.31,3.41,3.41,0,0,1,1.73-.73c.64-.15.85.22.94.88a2.61,2.61,0,0,0,.84,1.64,1.62,1.62,0,0,0,1.47-.55,2.67,2.67,0,0,0,0-2A2.88,2.88,0,0,0,35.52.3,10.82,10.82,0,0,0,32,3.16c-2.91,3.86-4.53,8.37-5.83,13-1.11,3.95-1.93,8-2.94,12-.11.43-.57.77-.87,1.15l-.4-.23c.24-.71.46-1.42.72-2.12,1.17-3.27,1.87-6.6,1.11-10.07A8.34,8.34,0,0,0,21,12.09c-2.35-2-3.71-1.77-5.55.81a13.32,13.32,0,0,0-1.27-.76,36.12,36.12,0,0,0-4.58-2.07c-1.65-.52-2.74.21-3,1.93a8.32,8.32,0,0,0,.19,3.18,18.09,18.09,0,0,0,5.83,9.18c1.62,1.42,3,3.05,4.54,4.58l-.31.37c-.26-.2-.54-.39-.79-.61-1.75-1.49-3.42-3.08-5.26-4.45a16.59,16.59,0,0,0-3.89-2,4.7,4.7,0,0,0-5.6,1.52,5.13,5.13,0,0,0-.43,6.18,11,11,0,0,0,8.29,5,39.43,39.43,0,0,0,4.74,0v1Z"/></g></g></svg>