<svg xmlns="http://www.w3.org/2000/svg" xmlns:xlink="http://www.w3.org/1999/xlink" viewBox="0 0 34.52 59.04"><defs><style>.cls-1{fill:url(#標準藍);}.cls-2{fill:url(#標準藍-2);}</style><linearGradient id="標準藍" x1="17.26" y1="59.04" x2="17.26" gradientUnits="userSpaceOnUse"><stop offset="0" stop-color="#4ca2be"/><stop offset="1" stop-color="#7cd4ea"/></linearGradient><linearGradient id="標準藍-2" x1="16.65" y1="15.75" x2="16.65" y2="1.17" xlink:href="#標準藍"/></defs><title>資產 44</title><g id="圖層_2" data-name="圖層 2"><g id="分離模式"><path class="cls-1" d="M0,4.25c.15-.84.28-1.68.46-2.5A2,2,0,0,1,2.87,0,2.05,2.05,0,0,1,4.51,2.57a14.21,14.21,0,0,0,1,9.33,12.05,12.05,0,0,0,5.81,5.64,14.18,14.18,0,0,0,3.53.71c1.41.24,2.82.49,4.24.63A4,4,0,0,0,21,18.65c5-2.1,7.79-6,9-11.12.15-.58.24-1.18.35-1.78a2.09,2.09,0,0,1,2.41-1.83,2,2,0,0,1,1.7,2.41c-1.15,7.25-4.65,12.85-11.5,16a1.06,1.06,0,0,0-.74,1.22,36.12,36.12,0,0,0,2.07,10.39,2.94,2.94,0,0,0,.59,1,20.44,20.44,0,0,1,5,12.64,31.26,31.26,0,0,1-.77,8.34A3.82,3.82,0,0,1,26.24,59H25.09c-2.57-1.22-3-2.22-2.4-5a19.11,19.11,0,0,0-.09-9.79A12.14,12.14,0,0,0,20,39.42a1.2,1.2,0,0,0-1.08,1.38,12.65,12.65,0,0,1-.26,2.29c-.87,4.67-4.18,7.32-8.87,7a16.65,16.65,0,0,1-7.07-2.29,3.17,3.17,0,0,1-1.46-3.34,3.36,3.36,0,0,1,4.7-2.44,31.78,31.78,0,0,0,4,1.37c1.35.34,1.89-.07,2.17-1.42a8.35,8.35,0,0,0-.19-4.46A51.42,51.42,0,0,1,9.26,22a1.16,1.16,0,0,0-.67-1.15,16.59,16.59,0,0,1-8-10.32C.32,9.65.18,8.76,0,7.88Z"/><path class="cls-2" d="M23.93,8.5a7.28,7.28,0,1,1-7.26-7.33A7.33,7.33,0,0,1,23.93,8.5Z"/></g></g></svg>