<svg xmlns="http://www.w3.org/2000/svg" xmlns:xlink="http://www.w3.org/1999/xlink" viewBox="0 0 312.76 29.77"><defs><style>.cls-1{fill:url(#未命名漸層_19);}.cls-2{fill:url(#未命名漸層_19-2);}.cls-3{fill:url(#未命名漸層_19-3);}.cls-4{fill:url(#未命名漸層_19-4);}.cls-5{fill:url(#未命名漸層_19-5);}.cls-6{fill:url(#未命名漸層_19-6);}.cls-7{fill:url(#未命名漸層_19-7);}.cls-8{fill:url(#未命名漸層_19-8);}</style><linearGradient id="未命名漸層_19" x1="17.78" y1="28.98" x2="17.78" y2="1.08" gradientUnits="userSpaceOnUse"><stop offset="0" stop-color="#4ca2be"/><stop offset="1" stop-color="#7cd4ea"/></linearGradient><linearGradient id="未命名漸層_19-2" x1="58.46" y1="29.77" x2="58.46" y2="2.23" xlink:href="#未命名漸層_19"/><linearGradient id="未命名漸層_19-3" x1="97.5" y1="27.97" x2="97.5" y2="2.12" xlink:href="#未命名漸層_19"/><linearGradient id="未命名漸層_19-4" x1="136.53" y1="28.87" x2="136.53" y2="1.22" xlink:href="#未命名漸層_19"/><linearGradient id="未命名漸層_19-5" x1="176.18" y1="28.83" x2="176.18" y2="1.01" xlink:href="#未命名漸層_19"/><linearGradient id="未命名漸層_19-6" x1="216.18" y1="29.26" x2="216.18" y2="0" xlink:href="#未命名漸層_19"/><linearGradient id="未命名漸層_19-7" x1="255.99" y1="29.12" x2="255.99" y2="0.07" xlink:href="#未命名漸層_19"/><linearGradient id="未命名漸層_19-8" x1="294.93" y1="29.55" x2="294.93" y2="0.61" xlink:href="#未命名漸層_19"/></defs><title>資產 48</title><g id="圖層_2" data-name="圖層 2"><g id="分離模式"><path class="cls-1" d="M10.76,28.4l-.43,0a1.3,1.3,0,0,1-.47-.9c0-.21,0-.54-.07-.9a5.58,5.58,0,0,1-.11-1v-.94l.4-8.24H9.65l-.44.83H8.75v.43L7.2,19.47h.22v.22l-.94.61.22.25-1.34.76v.43H5v.43a1.32,1.32,0,0,0-.58.22,1.8,1.8,0,0,1-.57.32,2.29,2.29,0,0,1-.65.08H2.52l-.86-.69L1,20.63l.22-.69L.43,19.8v-.43H0a4.34,4.34,0,0,0,1.26-.22c.47-.14.9-.29,1.44-.43A8.25,8.25,0,0,0,4,18.21a6.48,6.48,0,0,1,1.23-.46v-.44h.43v-.46h.43l1.37-2.06,1.15-1.26h.43l.68-2.12h-.9A5.2,5.2,0,0,1,7,11.88a11,11,0,0,0-1.91.39c-.57.26-1.11.51-1.62.76a3.84,3.84,0,0,1-1.87.36l-.18-3L2.12,9A8.86,8.86,0,0,0,4,8.78l1.65-.39a8.8,8.8,0,0,0,1.8-.54,13.66,13.66,0,0,1,1.73-.43l.25-.9L9.21,5.29,9.65,4,9.29,2.77,10,1.26l1.51-.18.43.22,1.23,5.54,1.51.43L15.3,8.6,15.87,10l-3.06.4-.25,2.91.61,1.34,2,1.33,0,.43,1.52.61.18,1.55-.26,1.84h-.68l-2.59-1.73v-.43l-1.26-.44-.15,5.73.58,4.21-1.3.61,0,.58h-.22ZM5.87,20.7l-.25.43h.25l.18-.22Zm.18-.43-.18.21.18.22.25-.15Zm12.31-9.76,0-1.26A1.31,1.31,0,0,0,19.15,9c.22-.18.47-.43.79-.75s.51-.51.69-.72a3.86,3.86,0,0,0,.43-.76l.43-2.05H22V4.25h.87L24.4,5.54l0,1.91-1.62,2.74h-.43a1.12,1.12,0,0,1-.22.72,5.49,5.49,0,0,1-.57.61,5.51,5.51,0,0,0-.54.61,1,1,0,0,1-.72.29ZM34.09,24.62a1.94,1.94,0,0,1-.72-.18,4.23,4.23,0,0,0-.79-.18.72.72,0,0,1-.65-.54.69.69,0,0,0-.65-.47l-.4-1h-.46v-.65h-.65a6.5,6.5,0,0,1-2.2.79c-.72.15-1.47.36-2.19.58a10.2,10.2,0,0,1-2.34.61,10.81,10.81,0,0,1-2.52.18l-.47-.25,0-2.52.72-1.87.9,0L23,17.42c.32-.54.68-1.08,1-1.69a4.2,4.2,0,0,0,.54-1.94c.07-.69.15-1.41.18-2.09h.44v-.25l.46,0,.58.87h.47V13h.43l0,2.78-.93,2.37h.46l1.08-.39v-.47h.65l.29-2.34L31,15l2.38,2.63v.65h.39a11.65,11.65,0,0,0,.58,1.4c.22.47.43.94.61,1.37s.33.87.51,1.37a2.67,2.67,0,0,1,0,1.58L35,24.8h-.9Zm-3-13.46v-.4L29.77,9.9,28.94,9a3.63,3.63,0,0,1-.43-.83c-.15-.29-.29-.54-.43-.86a3.6,3.6,0,0,1-.33-.9,2.33,2.33,0,0,1-.11-1l.9-1.44H29l.4.26v.39l.47.07V5h.43l.65.69,0,.43,2.84,1.51.15.61.68.22,0,1.73-.26,2.08H33.22Z"/><path class="cls-2" d="M41.11,20.81c-.11,0-.18-.18-.18-.4a1.08,1.08,0,0,0-.11-.54.78.78,0,0,1-.1-.43l.39-1h-.18V18a2.35,2.35,0,0,0,.69-.1,1.54,1.54,0,0,0,.57-.29c.18-.15.4-.29.58-.43a1.41,1.41,0,0,0,.47-.44l2.37-3.06H46l3-5.32h-.4l-1.4.39-.76-2L50,5.94l1.15-3.49,1.19-.22.79.22.18,2-.39,1.48h1.69a6.41,6.41,0,0,1,1.55.18c.47.14,1,.29,1.51.4A3,3,0,0,1,59,7.34l.57,1.84-1.15,2.3-1.4.4-1.59-1.62V9.83h-.36V9.4l1.16-1V7.77l-4.36-.25a2.54,2.54,0,0,1-.43.76,7.42,7.42,0,0,1-.61.57c-.18.22-.4.44-.58.65a2.39,2.39,0,0,1-.68.54h-.44l-.17.61a6.1,6.1,0,0,0-1.59,1.41c-.39.57-.79,1.19-1.19,1.76s-.75,1.23-1.08,1.84a7.19,7.19,0,0,1-1.26,1.76v.83a2.06,2.06,0,0,1-.18.79,8.06,8.06,0,0,1-.43.72,3.23,3.23,0,0,0-.39.79l-1.41.54A2.93,2.93,0,0,0,41.11,20.81Zm3.53-8.5-.76-1.48h-.64l-.58-.57-.18-1.08L43.06,8l1.58-.47L46.22,9.4l.22,2.08H46v.4l-1,.61Zm2.41,14A10.14,10.14,0,0,0,47.52,24c0-.79.11-1.65.18-2.44s.11-1.66.11-2.45V16.59l-.4-1.83.18-.4H48l.76.4v.18h.39l1.16-.58a1.39,1.39,0,0,0,.64-.65,5.06,5.06,0,0,1,.4-.68l.47-.76a.71.71,0,0,0,.07-.79l.83-.21,1.76.79.4,1.26,2.73.18.4.65h-.18v.61h.4v.39l.39.44h-.18v.18h-1l-1.58-.4-1.23.4v1.65l3.17.43v1.44l-1.58.15-1-.15-.39,1.62,2.73.65v.58l-.14,1h-.43L54.32,23h-1v.64l.58.79,3.56.87L58,27.5h-.18l-6.12-.58-2.95.58-.18,1,.18.39v-.18h-.61L48,29.77h-.22ZM49,8.17l-.22.22L49,8.6l.17-.21Zm3.92,15h-.58a5,5,0,0,1-.79.32,2.53,2.53,0,0,0-.79.47,1.17,1.17,0,0,1-.76.43H49v1.23l1.33.21,2-.82Zm.21-2.63.18-1.26h-.57l-2.41.8-.54-.18-.44,1.65h1l.25-.25Zm-2.55-1.9,2.16-.8.18-.82-1.19-1L50,17l-.21,2h.79ZM52.92,23l-.18.21.18.22.21-.22Zm14.4,6.55-.76-.58v.36h-.43L66,27.93h-.61v-.25l.39-.4a2.32,2.32,0,0,1,1.3-.43c.47,0,.93,0,1.37-.07a4.78,4.78,0,0,0,1.36-.43,2.38,2.38,0,0,0,1.12-.94l.22-.79L68.68,24l-.18.65-4.75.65-3-.65V24.4L59.61,24v-.36a4,4,0,0,0,1.08-1.08,1.47,1.47,0,0,1,1.23-.5,2.45,2.45,0,0,0,1.26-.11,5.18,5.18,0,0,1,1.4-.18v.4h2.3l4-.4.54.4.25,1.26H72l1-3.1h-.54v-.39l-3.34-.47-.83.25-.58-.25a9.44,9.44,0,0,1-1.47.36,9.66,9.66,0,0,1-1.44.11,2.78,2.78,0,0,0-1.41.32,2.76,2.76,0,0,1-1.36.32l-.26-1.11h.4l.61-1.19.61-.22,1.59.22,5.29-.4c.54.11,1,.22,1.51.29a14.51,14.51,0,0,0,1.44.18,8.23,8.23,0,0,1,1.48.33,7.38,7.38,0,0,1,1.29.64l.22,1.44L75,22.14h-.43l-.36,1.47h-.4V24l.18.43-.79,1H73v.22h-.18v.21h-.36v.83h-.21v.18H72v.65l-.79.79-1,.22-1.15,1-1.41.21ZM61.77,17.24l-.18-3.31a.9.9,0,0,1,.33-.72,1.15,1.15,0,0,0,.25-.83v-.9a1.64,1.64,0,0,1,.22-.83L61.77,9h.62V8.78h.39l1.55,1.66v.39h.79l4-.57.18-1.48H67.71L66.56,9l-.22-.61.22-.87.58-.36.18-.82H68.5l.18.39h2.78a1.13,1.13,0,0,1,.79.43v.36l1,.47v.4h.43v1L72.46,10,71.1,13.5l-1.62.43-1.59-.22-4.5.87v.79l1.59.4,9.25-.83.57.21v.22a4.76,4.76,0,0,1-3,.76,16.33,16.33,0,0,0-3.06.07l-3,.36c-1,.14-2.05.29-3.06.47v.61ZM62.17,7V6.34l.22-.4h.39l.61-1.26L65,2.81h.36V2.45h.39l1.8,1,.18,1.22h-.39v.43a12.63,12.63,0,0,0-1.08.79,10.67,10.67,0,0,1-1,.76,8.79,8.79,0,0,1-1,.61A2,2,0,0,1,63,7.34Zm5.72,5.51,1.23-.43.36-1.23H68.29l-4.14.87v.79h1v.61h1.22l1.55-.18Zm-.57,11.74-.18.17.18.22.21-.22Zm.39-.26-.18.43h.18l.18-.17Zm0,5.15-.18.18.18.22.18-.22Zm1.77-5.33L69.3,24l.18.26.18-.26Zm.61-2.05-.22.22.22.18.18-.18Zm1,2.49-.22.39h.22l.14-.22Zm.14-.44L71.1,24l.14.26.18-.26Zm.43-.18-.25.36h.25l.18-.18Z"/><path class="cls-3" d="M109.69,27.75h.65V27h-1.23l-1.22-.72v-.25l-1.69-2.12-8.28-.47-.79.22-2.74-.22-3.31.72a.57.57,0,0,1-.4.58,3.31,3.31,0,0,1-.83.1.86.86,0,0,0-.75.36.94.94,0,0,1-.68.4l-1.48.68-.65,1H85.07a6.14,6.14,0,0,1-1-2.77,23.35,23.35,0,0,1-.21-3.2,7.32,7.32,0,0,0-.58-3,6.31,6.31,0,0,1-.5-2.91L83.38,13h2.3l.83.5a7.51,7.51,0,0,1,.72,1.41,5.7,5.7,0,0,1,.43,1.65c0,.62.07,1.26.07,1.88A4.81,4.81,0,0,0,88,20.16l-.25.47h-.4v.93h.87l3.89-1.4a3.81,3.81,0,0,0,.64-2.23V10.44l-.43-1h-.21l-.8-3.75a.68.68,0,0,0,.4-.61V2.63l1.62-.51,2.09,1a2.85,2.85,0,0,1,.36.93,2.52,2.52,0,0,0,.32.83,2.47,2.47,0,0,1,.15,1V6.91l.46.9-.25.72L96.69,10l-.46,2.38h-.36v.93h.36V13h.21v.5l-.57.22-.47,4.72.47,1.44a4.25,4.25,0,0,0,2.48.72h2.77c.9,0,1.84,0,2.81.1s1.87.22,2.7.4l.61-.25V18.25a2.92,2.92,0,0,1-.43-.61,2,2,0,0,1-.18-.83V15.19l.39-1.91a3.24,3.24,0,0,0,.76-.61.86.86,0,0,1,.68-.32h1.66L112,13.53l.25,1.41-.47,1.91.22,2.59h-.43c0,.61,0,1.19-.08,1.65a10.82,10.82,0,0,0-.1,1.55,4.4,4.4,0,0,1-.22,1.44,4.51,4.51,0,0,0-.22,1.55h-.21a.88.88,0,0,0-.18.57v.72a1.22,1.22,0,0,1-.22.69c-.18.25-.32.36-.47.36ZM87.16,16.63h-.44v.65l.22.25.22-.25Zm.17,3.74h-.39l-.22,1,.44.46.17-.25ZM102.27,23v.5h.44l.21-.25Zm.83,0v.5h.43l.18-.25Zm.79.25v.47h.87l.21-.22Zm1.3,0v.47h.65l.14-.22ZM111,24.4l-.64-.21v.47l.25.21.18-.21Zm0-1.65h-.39v.94l.18.25.21-.25ZM111,19v.47h.44l.18-.22Zm.44.94H111v1.44h.44Z"/><path class="cls-4" d="M119.81,23.94V23.5l-.65-.21-.58-2.45h1a1.19,1.19,0,0,0,.94-.36,1.41,1.41,0,0,1,.83-.47,8.42,8.42,0,0,0,.93-.28l.18-.72.61-.22,4.32-8.06-.79-.51c-.4.15-.83.29-1.22.47a8.22,8.22,0,0,0-1.23.54c-.39.22-.82.43-1.26.68a6.09,6.09,0,0,1-1.22.54l-.22.94H121a.22.22,0,0,0-.25-.22c-.22,0-.32-.07-.32-.25v-.86l1-2.49c.54-.17,1.08-.32,1.66-.46l1.55-.44a14,14,0,0,1,1.65-.36,10.43,10.43,0,0,1,1.73-.14l1.66.72V10h-.44a19.17,19.17,0,0,1-1,2.91,21,21,0,0,1-1.48,2.59c-.5.83-1.08,1.7-1.62,2.6a13.44,13.44,0,0,0-1.44,2.73h-.43v.51a.59.59,0,0,1-.18.46,4.56,4.56,0,0,0-.43.36.62.62,0,0,0-.22.43h-.39v.69h-.62l-.25.65V23.5h-.75v.65Zm11.84,4.17a1.16,1.16,0,0,1-.36-.86c-.07-.4-.14-.76-.22-1.15a5.56,5.56,0,0,1-.1-1.05c.14-1,.28-2.16.39-3.34s.22-2.34.29-3.46.07-2.3.07-3.49V11.12a6,6,0,0,1-.18-1.47,3,3,0,0,0-.39-1.44,2.65,2.65,0,0,1-.44-1.48,5,5,0,0,0-.21-1.44l.68-3.38.54-.69h.69l1.65.29a8.43,8.43,0,0,0,.51.87,1.41,1.41,0,0,1,.18,1,2.14,2.14,0,0,0,0,1,4,4,0,0,1,.1.9l-.21,1.33.21.47h1.66c.58-.18,1.12-.36,1.66-.57s1.08-.36,1.65-.54a7.44,7.44,0,0,0,1.55-.72,5.92,5.92,0,0,1,1.55-.65l.61,1.11h-.22v.9h-.39l-.22,1.15-1.22.69a1.43,1.43,0,0,1-1.23.65,4.17,4.17,0,0,0-1.44.21,3.81,3.81,0,0,1-1.47.25h-1.66V10l.43.9h.4l2.27,4h.43a2.76,2.76,0,0,0,.61.93c.29.33.51.62.72.9a3.28,3.28,0,0,0,.83.76c.32.25.61.5.93.76l1.44.5.4.94,1,.39v.22h1.69v-.43l-.83-.18h.61l5.19,1.11h1v-.5h.61l.61.21v.51l-.18.61.61.29v.64a1.18,1.18,0,0,0-.32.55.65.65,0,0,1-.33.46c-.1.08-.28.18-.46.33a3.23,3.23,0,0,0-.54.46l-1.88.44v.43a4.26,4.26,0,0,1-.93.5,3.66,3.66,0,0,1-1,.18h-2.16l-1-.18v-.21h-1l-2.95-2.27-.15-1.12-1.08-.5L140,20.34l-.4-.22v-.39h-.39l-1-2.06h-.44l-2.44-3.38-.65-.5v.72l.21,3.16-.57,10.55h-.47v.4h-.4l-.61-.18v.43h-.39Zm12.09-4.17-.21.21.21.25.18-.25Zm.65,0-.25.21.25.25.18-.25Zm7-2.88L147,20.12l-.65.22v.5l1.08.22v-.51l1.26.51v.39h.58l1.47-.18.18.18.22-.18Zm-3.1.21v.4h.47l.18-.22Zm1,.18-.18.51h.18l.18-.29Zm1.26-.18-.22.4h.22l.21-.22Zm-.22.4v.5h.61l.22-.21Zm1.87-.22.36-.18v.18h1.08l.4-.9h-.4l-2.3.51v.61h.86Zm0,.22L152,22l.21.21.18-.21Zm2.06-1.76H154l-.18.21Z"/><path class="cls-5" d="M158.94,28.72,158.36,27l1-2.12a18,18,0,0,0,3.27-.65c1-.32,2.13-.61,3.17-.83l3.24-.65a16.76,16.76,0,0,0,3.17-1,3,3,0,0,1,.43-.9,1.58,1.58,0,0,0,.29-.93,3.68,3.68,0,0,1,.18-1.05,1.59,1.59,0,0,0,0-1l-1-.14a4.3,4.3,0,0,1-1.22.36c-.36,0-.79.14-1.22.22s-.8.28-1.19.39a11.3,11.3,0,0,0-1.23.47l-.32.54h-.25v.25h-1.22l-.29-.29a.37.37,0,0,1-.18-.32V18.5l.47-1.8h.28l.94-1.19c.61-.1,1.19-.21,1.73-.28s1-.26,1.58-.4,1-.29,1.58-.43a6.17,6.17,0,0,0,1.59-.58l.32-2.3-.18-.4h-1a4.89,4.89,0,0,1-1.3.36,8.24,8.24,0,0,1-1.44.22,2.43,2.43,0,0,0-1.29.47,3.84,3.84,0,0,1-1.3.5v.25l-.72.29-.32.76-1.51.25-1.8-1-.65-.54-.4-1.55.4-.9L163,9.68a1.4,1.4,0,0,0,.33-.32,1.47,1.47,0,0,0,.18-.4,1.86,1.86,0,0,0,.07-.46V8l-.14-1.33,1.08-2.31a.7.7,0,0,0,.5-.21,1.18,1.18,0,0,1,.47-.29,2.12,2.12,0,0,1,.54,0h.61l.43.11v.29h.47V4.5h.32l.25.65h.33a3.33,3.33,0,0,1,.21.79,3.25,3.25,0,0,0,.22.76,2.4,2.4,0,0,1,.14.9v.79H170l2.56-.62V7.13a.75.75,0,0,1-.36-.47,2.2,2.2,0,0,1-.08-.47v-1a1.16,1.16,0,0,0,.29-.83,1.46,1.46,0,0,1,.29-.86,2.77,2.77,0,0,0,.47-.83,6.62,6.62,0,0,1,.32-.83l1.8-.79,1.37.9a1.78,1.78,0,0,1,.43,1.22c0,.47,0,.94.07,1.37s.08.9.08,1.44a2.9,2.9,0,0,0,.28,1.3c.65.07,1.26.14,2,.18l1.87.21c.57.11,1.19.18,1.76.29a4.33,4.33,0,0,1,1.66.75l.32.9-.14.36-.43.29-.15,1-1.22.14-6.34-.64-.32,3.78h1.87c.58,0,1.15,0,1.69,0s1.12.11,1.66.18a11.47,11.47,0,0,1,1.58.43l.18,2.45-1.26.11-5.83-.11L176,21l.32.61c1.51.25,3,.47,4.54.65a42,42,0,0,1,4.42.79c1.44.36,2.92.68,4.36,1s2.88.65,4.32,1.09v.21h-.14v.29l.14.14h-.36a.38.38,0,0,0-.29.25c-.07.15-.14.26-.18.36s-.14.18-.25.29l-.11.51h-.61c-.11,0-.18,0-.18.1v.29l.47.4h-2.23a29.31,29.31,0,0,1-4.61-1.12,45.39,45.39,0,0,0-4.39-1.22,35.75,35.75,0,0,0-4.61-.72c-1.62-.14-3.28-.22-5-.22a2,2,0,0,1-.69.22,1.91,1.91,0,0,0-.65.25,1.57,1.57,0,0,1-.72.18h-.82v.29c-.62.14-1.16.29-1.73.39s-1.12.29-1.66.47-1.08.4-1.58.61a14.46,14.46,0,0,1-1.69.58V28c-.29,0-.58.11-.83.14a2.47,2.47,0,0,0-.76.29,7,7,0,0,1-.72.32,2.85,2.85,0,0,1-.86.11Z"/><path class="cls-6" d="M202.9,19.62c.1-.4.21-.79.36-1.23s.25-.75.36-1.11a10.21,10.21,0,0,0,.25-1.23c0-.46.07-.86.07-1.26l-.18-.61.18-.57-.72-1.37-1-.47v-.43l1.23-1.41a7.05,7.05,0,0,0,1.94-.28,11.94,11.94,0,0,1,2-.44,11.42,11.42,0,0,0,1.94-.46,7.41,7.41,0,0,1,2-.29l.83.14V8.28h-.33v-1h-1.73c-.68.11-1.36.18-2.05.29s-1.37.18-2,.25-1.37.25-2,.4a15.76,15.76,0,0,1-2,.39v.33l-2.19.28-.36-.14-.36-.9h-.33l-.18-1.08L200,5.15A3,3,0,0,1,201,5a1.32,1.32,0,0,0,.83-.32,7,7,0,0,1,.79-.54,3,3,0,0,1,.87-.36V3.49l.86-.61,1.51-.79.36-.58.5-.14L207.5,0h.69l.72.43.14,1.08-.47,1.08-.57.15V3l-1.34.76V4.1L205,5v.58h.36L211.5,5V4.72l-.76-1.41A1,1,0,0,0,211,3a.34.34,0,0,1,.29-.14h.83l1.72.9a1.5,1.5,0,0,0,.36.94,1.51,1.51,0,0,1,.33.93V7.7l-.69.15v.43l-1.54.18v.32l1.18.29.36.86-.86.8v2c0,.69,0,1.33-.07,2a20.15,20.15,0,0,0-.11,2,4.81,4.81,0,0,1-.36,1.91l-.47.14V19h-1.26l-.83-.75V16.13l.36-.62h-.86c-.25.11-.43.22-.68.33a2.67,2.67,0,0,1-.69.21c-.25,0-.5.11-.75.15a3.33,3.33,0,0,1-.79.11v.32l-.87.14a3.91,3.91,0,0,1-.14,1.12,5.07,5.07,0,0,0-.25,1.12,9.38,9.38,0,0,1-.29,1.11,2.91,2.91,0,0,1-.51,1l-.9.14Zm-.33,7.84-.18-.46a2.37,2.37,0,0,1-.43-.08c-.18,0-.29-.1-.32-.21a.61.61,0,0,1-.15-.33,2,2,0,0,0-.29-.28l-.32-1.8.65-1.8,1-.18,1.19.61a.51.51,0,0,0,.29.43,2.55,2.55,0,0,1,.47.4.64.64,0,0,1,.25.54v.57l-.83,2.31-1.37.43Zm8-16-.87-.87h-1l-.72.33a1.25,1.25,0,0,1-.75.25h-.87a1.91,1.91,0,0,0-.79.18v.75h.87l.79-.32a4.61,4.61,0,0,1,.86-.25,6.36,6.36,0,0,1,.86-.07h.9l.36.32.18-.14Zm0,1.69h-2L206,14l-.18.57H207l3.06-.57Zm5,15.08V27.9H215v-.29l-.83-.33-.15-.39c-.39.07-.57,0-.68-.22a1.14,1.14,0,0,0-.54-.43,6.65,6.65,0,0,1-.61-.32,3.59,3.59,0,0,0-.58-.25l-.14-.47-1.23-.47a.86.86,0,0,1-.25-.4,1,1,0,0,1-.11-.5v-1h.69l.54.61,1.51.75.68.72c.47.22.94.47,1.41.72l1.37.72a6.6,6.6,0,0,0,1.36.61,4.13,4.13,0,0,0,1.55.26,5.08,5.08,0,0,0,1.62-.26c.51-.14,1-.28,1.55-.46s1-.29,1.55-.47a10.25,10.25,0,0,0,1.44-.51.48.48,0,0,1,0-.54c.1-.14.25-.28.39-.46a.43.43,0,0,0,.18-.47,1.74,1.74,0,0,1-.11-.61l-.14-.61.5-.58h.72v.43l.83.15,1.59,1.36.68.15.29,1.47-.29.79-1.4.62v.28c-.8.22-1.55.44-2.38.69s-1.62.47-2.41.65a18.5,18.5,0,0,1-2.59.39c-.9,0-1.8.07-2.74.07ZM221.07,9a6.14,6.14,0,0,1-1.62-.33,13.71,13.71,0,0,0-1.65-.32A4.72,4.72,0,0,1,216.29,8l-.72-.43-.18-1.22,1.08-5h.32l.32-.29.69.14.5,1.52h.9l2.74-1.23c0,.22.1.33.36.43a.47.47,0,0,1,.28.47,1.2,1.2,0,0,0,.11.54,2.27,2.27,0,0,1,.08.54l-.19.43L218.3,5.58V5.9a3.06,3.06,0,0,0,1.08.36,7.53,7.53,0,0,0,1,.08h2.19l2.6-.9,1.4.9.14.75h.51l.18.61c-.36.29-.69.58-1,.83a3.9,3.9,0,0,1-1.08.54,7.55,7.55,0,0,1-1.29.22c-.47,0-.94.07-1.41.07A4.47,4.47,0,0,0,221.07,9Zm.51,9.54a9.3,9.3,0,0,0-1.37-.22,9.27,9.27,0,0,1-1.37-.21c-.47-.11-.9-.18-1.37-.29l-.54.14a4.23,4.23,0,0,1-.9-.39.76.76,0,0,1-.46-.76v-2a2.62,2.62,0,0,0,.18-.9V13a1.81,1.81,0,0,1,.18-.82,1.73,1.73,0,0,1,.54-.72l1.18-.11v.29h.87l2.37-.8,1.69,2v.43h.36V14l-.36.75h-.46a1.74,1.74,0,0,0-1-.54c-.4,0-.8-.07-1.19-.07a2.16,2.16,0,0,1-1.12-.32c-.36-.15-.72-.29-1-.4v2.23c.47.11.9.18,1.22.29a5.16,5.16,0,0,0,1.19.22,9,9,0,0,0,1.37.11h1.36l2.24-.94.18-.25h.46l.58.57h.32V16l.69.11,1,.9v.61a2.53,2.53,0,0,1-1.19.68,8.85,8.85,0,0,0-1.26.54,2.71,2.71,0,0,1-1.48.25c-.54,0-1.08-.07-1.55-.07A6.74,6.74,0,0,0,221.58,18.54ZM216.47,24V22.5A.93.93,0,0,1,217,22c.22-.11.4-.22.58-.32a1.19,1.19,0,0,1,.64-.15H219l1.19.47.32,1.51-1.15,1-1.73.15Zm12.81-2.7-.14-.9.14-.46,1.58-.29,2.56,1.08.32,1.19a3,3,0,0,0-.32.36.61.61,0,0,1-.5.25.72.72,0,0,0-.54.14.71.71,0,0,1-.51.15Z"/><path class="cls-7" d="M245.81,18.5a4.28,4.28,0,0,1-.36-1.08c-.11-.39-.18-.72-.25-1a5.58,5.58,0,0,0-.44-1l-.54-1.84h-.5l-2.16,1.84h-1L239,15a9.71,9.71,0,0,0,3.31-2.3L245,9.72a32.56,32.56,0,0,0,2.37-3c.72-1,1.4-2,2.12-3.17a1.87,1.87,0,0,0,.29-.94,2.63,2.63,0,0,1,.15-.93,1.35,1.35,0,0,1,.64-.87,1,1,0,0,0,.54-.79h1.26l1.34.47,2.66,3.06h.54l4.21,4.5v.47l6.62,2.59v.47H273l-1,.93h-.54v.76h-.29v.25l-1,.43.54.22v.25H271V15h-.83l-.76.9h-1.87a10.63,10.63,0,0,1-1.44-.46,13.68,13.68,0,0,1-1.44-.44,5.9,5.9,0,0,1-1.47-.61,5.85,5.85,0,0,1-1.19-.79l-.29-.76h-.83l-.5,4.5h-.54V18h-3.42c-1.22,0-2.38,0-3.42.11s-2.12.18-3.17.33a23.67,23.67,0,0,0-3.2.75A1.5,1.5,0,0,1,245.81,18.5Zm2-6.37c.82-.14,1.54-.29,2.3-.47a8.81,8.81,0,0,1,2.23-.25h2.45l3.74.72.8-.22,1.29.44v-.44l-1.51-1.69h-1.37l-2.66.25L253,10.22a8.53,8.53,0,0,1-2.12.25,6.92,6.92,0,0,0-2,.26,17.05,17.05,0,0,1-2,.32,2.54,2.54,0,0,0-1.84,1.08l-.83,1.19h1.37l.18-.25A4.16,4.16,0,0,1,247.79,12.13Zm.54,4a1.1,1.1,0,0,1-.15-.62V14.22l.29-.9h-.54l-1.87.47v.43l1.58,2.63,2.67.21,1.08-.21v-4H249.8l-.83.26v.5l.54.9,1.05.29V15l-1.05,1.66h-.79A2.4,2.4,0,0,1,248.33,16.13ZM247.93,28l-.29-2.84h.29v-.51h-.29l-.25-3.06-.79-.68a2.18,2.18,0,0,1,1.33-.87l1.62-.21a4,4,0,0,0,1.44-.47,3.15,3.15,0,0,1,1.4-.32,2.44,2.44,0,0,0,1.91.9,20.74,20.74,0,0,1,2.09.1,13.91,13.91,0,0,0,2.16.15,2.24,2.24,0,0,1,1.8,1l.25,1.4-.25,1.19.25,1.41-.5.25v.43h.5v.5l-.25.72h.25v1.62h-.79l-1-.25-1.08.25v.47h-4.53l-2.06-.29-1.33.29Zm9.29-6.41-6.09-.43-1.87.18v.47l.79,1.94h6.34l1.08-.5Zm.5,5.69-.25-2.63h-1.58l-5.84.51-.54,1.43.8.47a6.13,6.13,0,0,0,1.72.58,10.44,10.44,0,0,0,1.84.14h3.85Zm-.25-18.94-3.74-4H253l-.79.94-2.13,2.41h.51l1.33-.25V8.1l5.58.68Zm.5,5-4.78-.76v3.85h.54l1-2.84.83-.25.79,1.44-.5,1.87h1.33l.25-.22Z"/><path class="cls-8" d="M277.27,12.85v-.61l.22-.61-.4-1.26a3.38,3.38,0,0,1,1.84-.76,3.2,3.2,0,0,0,1.73-.72c.43-.39.93-.9,1.44-1.44a6.87,6.87,0,0,1,1.51-1.4l2.84-4.54,1.22-.25,1.19.83L291,3.74l1.4.87a1.51,1.51,0,0,1,.4.43,1.67,1.67,0,0,1,.18.76V7.27l-.76.22A4.1,4.1,0,0,1,291,6.84c-.4-.29-.83-.54-1.22-.83a4.93,4.93,0,0,1-1.05-1,1.47,1.47,0,0,0-1.22-.58c-.54.79-1.08,1.59-1.62,2.31A17.41,17.41,0,0,1,284,8.93a18.48,18.48,0,0,0-1.9,2.23,7.31,7.31,0,0,1-2.16,1.91h-2.27Zm3.67,14.83.4-1.22,2.27-1.23a3.85,3.85,0,0,0,.68-1.65c.07-.54.15-1.12.22-1.77a15.68,15.68,0,0,0,.11-1.87V18l-1.19-1.23L283,15.12a.49.49,0,0,0-.4-.22c-.14,0-.21-.11-.21-.32v-.9l.83-1.3,3.27-1,1.22.22,3.06-.47,1.62,1.08.22,1.62a6.44,6.44,0,0,0-.61,1.37,10.34,10.34,0,0,0-.33,1.44c-.07.46-.14,1-.21,1.44a2.39,2.39,0,0,1-.69,1.33L286,20.7l-.4,2.88.83.43,1.22-1v-.62l-.21-.61.65-.21L291,24l.18,2.45-.58.18-2.08-.94a9.08,9.08,0,0,1-1.73,1,9.49,9.49,0,0,1-1.91.69A4.63,4.63,0,0,0,283,28.44a8,8,0,0,1-1.84,1.11Zm9.15-13.82-.4-.29a.72.72,0,0,0-.36-.11h-1.08a1.81,1.81,0,0,1-1,.22h-1.12a5.22,5.22,0,0,0-1.11.11.64.64,0,0,0-.65.72l1.87.61,3.6-.61Zm-5-4.14-.22-.79,2.84-1.87a5.59,5.59,0,0,1,.44.5.46.46,0,0,0,.46.29h.62a.61.61,0,0,1,.5.21v.65l-1.44,1.44-2,.43Zm4.64,6.44-.83-.21-3.06,1-.18.61,1.62.4,1.87-.4ZM295,12V9.25a3,3,0,0,0-.4-1.4l-1-1V6.23a1.32,1.32,0,0,1,1.22-.87A3.47,3.47,0,0,0,296.31,5c.47-.18.9-.36,1.34-.58a5.73,5.73,0,0,0,1.22-.93l.4-1.44L299.09.83l1.22-.22,1.26,3.31a13.08,13.08,0,0,0,2.48.22h2.56a13.86,13.86,0,0,1,2.48.22,7.6,7.6,0,0,1,2.23.82l1.44,3.1a1.33,1.33,0,0,0-.61.54,2.59,2.59,0,0,0-.32.72c-.07.29-.15.54-.18.72a2.66,2.66,0,0,1-.33.68l-1.22.22c-.14-.15-.29-.33-.43-.51a2,2,0,0,1-.33-.61,2,2,0,0,1-.1-.64V8.71l.43-1-1.84-2.12-6.12-.22c-.39.15-.86.29-1.33.44a5,5,0,0,1-1.51.32c-.5.07-1,.18-1.51.29a4.33,4.33,0,0,0-1.33.65l-.26.64a1.33,1.33,0,0,1,.58.8c0,.28.11.61.18.93a5.58,5.58,0,0,1,.11,1v.94a.68.68,0,0,0-.22.5,1.33,1.33,0,0,1-.18.62,3.29,3.29,0,0,0-.32.61c-.11.21-.25.25-.51.11A1.76,1.76,0,0,1,295,12Zm3.24,16.06-.61-1.62a10.41,10.41,0,0,0,.72-3.21c.07-1.15.18-2.26.32-3.42a33.64,33.64,0,0,0,.18-3.38v-3.6l-.79-2.48,1.4-1.66,6.34-.18a2.71,2.71,0,0,1,.72.47,2.62,2.62,0,0,0,.61.5,2.31,2.31,0,0,1,.54.54c.07.22.21.47.32.76v1l-.75.57-.87,1.91a2.22,2.22,0,0,1-1.4.43,6.93,6.93,0,0,0-1.55.18,5.19,5.19,0,0,1-1.55.22,3,3,0,0,0-1.4.36l-.36,1.91,1,.43,4.72-.43,1.83.82,1.23,2.49-1.23.83a2,2,0,0,0-.5,1.11c-.11.47-.22.9-.33,1.26a5.64,5.64,0,0,0-.32,1.23,9.63,9.63,0,0,0-.11,1.33l-1.4.18a.7.7,0,0,0-.69-.36h-3l-1.44.61-.79,1.19-.83.25Zm7.34-16.67-.83-.47-1.58.22-3.31-.22-.18.87.79.57.22.87.61.21,3.67-.61Zm-.83,12a3.79,3.79,0,0,0,.33-.79,8.89,8.89,0,0,1,.18-1,4.49,4.49,0,0,0,.1-.9l-1-1.26h-2.48l-1.62,1a1.31,1.31,0,0,0-.43.9v3l1.44.22,2.84-.39A2.57,2.57,0,0,0,304.77,23.36Z"/></g></g></svg>