<svg xmlns="http://www.w3.org/2000/svg" viewBox="0 0 70 70"><defs><style>.cls-1{fill:#c30d23;}.cls-2{fill:#fff;}</style></defs><title>資產 36</title><g id="圖層_2" data-name="圖層 2"><g id="分離模式"><circle class="cls-1" cx="35" cy="35" r="35"/><path class="cls-2" d="M16.9,25.7l.29.14c.23-.07,0-.11.56-.3a12.7,12.7,0,0,1,3-.59c.52-.37,1.47-.47,1.76-.81,1-.31,2-.52,2.9-.81,2.72-.88.94-2,2.08-2.37a4.11,4.11,0,0,1,2.21,1.84c.11.33,0,.38-.26.45-.48.15-.93,0-1.39.2-.08,0-1.47.72-1.62.77-1.07.46-3.16.89-4.66,1.38l-.26.2-3.09,1a4.8,4.8,0,0,1-1.17.62A7.9,7.9,0,0,1,16.13,26ZM30.83,48.53a14.75,14.75,0,0,1-1-2.24c-.07-.22-1-2.76-.77-2.91L29,43.23c0-.08-.53-1.13-.57-1.28a1.61,1.61,0,0,1-.14-.92c-.33-1-.68-2.38-.79-2.71-.1-.17-1-2.88-1.32-3.83-1.54-4.77-1.8-2.58-2.45-3.34,0,.24-.47.55-.84.67l-4.66,1.5a1.43,1.43,0,0,1-.53.25c-.33.11-1.21-1.11-1.22-1.14-.09-.26.22-.32.48-.4.11,0,.79-.18.9-.21l.52-.17c.29-.09.76-.16.88,0,0-.33.76-.65,1.6-.92.44-.14.9-.25,1.3-.38a3.33,3.33,0,0,0,.92-.42l3.67-1.18a1.13,1.13,0,0,0,.71-.07A6.72,6.72,0,0,0,29.14,28c.49-.24.2-1.64.94-1.88.61-.48,1.16,1.61,2.34,1.23s-.54-2.3,0-2.83l-.48-.21c-.12-.89-1.09-.9-1.26-1.42,0-.11.15-.29.15-.29,1.35-.07,2.3.6,3.77.12a1.27,1.27,0,0,0,.93-1.39,11.1,11.1,0,0,0-1.66-2.87c-.36-.37-1,.06-1.13-.49a3.58,3.58,0,0,1,1.36-.31c.09-.11,2.11-.24,2.34.46s-.24,1.17-.13,1.5c.5,1.54.6,2,2,1.56.85-.28.66-.22.82-1.24-.18-.55-.43-1-.61-1.51-.12-.12-.07-.34-.06-.58a12.27,12.27,0,0,0-1.66-2.51c0-.36.88-.65,1.1-.72l.44-.14c1.43.15,1.92-.09,2.16.64A1.51,1.51,0,0,1,40,16.68c-.33.1-.39.29-.23.8.08.1.57,2.5,1.45,2.21l1.43-.46.3-.58c.11-.4.16-1.76.6-1.9s2.76.65,3,1.46c.17.55-.52.9-.35,1.45l.18.3,1.21,3.75V24c.13.15.3.55.43.58a16.15,16.15,0,0,0,.7,2.94c.15,1.09-1.12,1.82-1.18,2.49a.32.32,0,0,1-.4-.11l-.43-1.33a.79.79,0,0,0-.74-.41,9.9,9.9,0,0,1-1.53.9.64.64,0,0,1-.63,0c-1,.36-1.76,1.06-2.5,1.29a14.33,14.33,0,0,1-2.47.63c-.11,0-.2.15-.31.19s-.28,0-.35-.21.28-.42.34-.6a2.24,2.24,0,0,0,0-1.21c-.42-1.32-1-1.87-1.52-1.7-1.06.35-1.14,1-.85,1.9,0,.31.5,1.3.67,1.81.29.15.86-.11,1,.18s.07.22-.08.27l-.88.28a1.5,1.5,0,0,0,.05.39c.29.39.08,1,.25,1.54,0,.41.38.69.9.52l1.76-.56A4.68,4.68,0,0,1,41.22,33l.88-.28.42-.22c1.25-.4,2.86-.68,3-.74s1.38-.61,1.49-.64a1.44,1.44,0,0,1,.27-.05A16.16,16.16,0,0,1,49,30.41a7.3,7.3,0,0,0,1.39-2,6,6,0,0,1,2.08,1.44c0,.15-.3.34-.37.36-.87.32-1.68.46-2.38.68-1.06.35-2.33.68-2,1.63.15.44,2,.42,2.22,1.23.18.55-.55.91-.34,1.57.1.3.32.63.42.92-.14.21,0,.29,0,.26.05.15.77,1.49.8,1.6.13.29-.08.51-.34.6a4.94,4.94,0,0,1-1.24.28c-.23,0-.61,0-.59.07-.33.1-1,.57-.89,1,.08.26,1.4.81,1.93,1.08.25.41-.32.51-.34.84.22.42-.37,1.1-.19,1.65.07,1,1.45.38,2,.31.22-.07.55.19.77.12.27-.41.88-.53,1.36-.68s.25-2.39.79-2.57,1.84.79,2,1a1.19,1.19,0,0,1,1.28.68c.11.33,0,.24-.12.4-1.17.38-1.61.4-2.53.7-.22.07-1.87,1-2.13,1.05-.74.23-2.57.95-4.48,1.56l-.19.18a3.66,3.66,0,0,0-.56.15c-.62.2-1.06.49-1.72.71s-1.36.31-2,.53a15.23,15.23,0,0,1-4,1.65c-.44.15-1.11.6-1.55.75s-1-.41-1.16-.85c0,0-.11-.33,0-.37l4.48-1.45,1.4-.69a3.72,3.72,0,0,0,.2-1.65c-.27-.84-.79-2-1.26-1.9s-.67.94-1.34,1.16a1.3,1.3,0,0,1-1.19-.71c-.11-.33,0-.6-.14-.93-.79-1.32-1.08-3-1.86-4.26a1.34,1.34,0,0,1,1-1.46.76.76,0,0,1,.56,0c.55.43,1.34.14,2-.06a10.17,10.17,0,0,0,1.55-.83c1.18-.26,2.45-.71,2.89-.85a2.7,2.7,0,0,0,1.75-2.51.76.76,0,0,0-1-.48l-2.65.85a.62.62,0,0,1-.33.23c-.14,0-.27,0-.41.09-.41.37-.93.38-1.36.68a10.83,10.83,0,0,1-3.09.75c-.29.1-.29.1-.44.39l-1.76.57s-.25,0-.29-.15-.22-.42-.07-.47l1-.33c-.51-1.58-.75-1.17-1.23-1.79-.29-.4-.33-1-.69-1.4a10.85,10.85,0,0,1-.31-1.44c-1-3.27-1.6-2-3-2-.29.1-1,.57-.89,1,.43,1.32,1.78.48,2,1.14.07.22-.25.73-.3,1.07a7,7,0,0,1,.13,1.17c0,.15.4,1.49.42,1.57a7.68,7.68,0,0,0,.63,1.18c.62,1.91,1.24,2.84,1.71,4.31.19.58.14,1.17.35,1.83a3,3,0,0,1,.51.81c1.29,3.88.64,2.75.26,4.09l-.37.12c-.26-.2-1.19-.55-1.38-1.26a5.46,5.46,0,0,0-.31-1.72c-.39-1.21-.78-2.18-1.14-3.29-.14-.43-.21-.9-.4-1.49-.37-1.17-.92-2.09-1.24-3.08,0-.15-.16-1-.18-1.08s-.34-.54-.36-.61a5.88,5.88,0,0,1,0-.74c-.08-.37-.32-.22-.41-.51-.24-.49-1.16-3.36-1.38-3.29L27.78,30c-.07,0-.37.37-.3.59s.46.17.53.39a1.83,1.83,0,0,1-.23,1.29l.48,1.47a.42.42,0,0,0-.22.47c.08.23.44.47.52.73s-.07.27,0,.49c.44.22.38.53.68.84.25.64.22,1.18.45,1.88a5.19,5.19,0,0,0,.36.61c.57,1.76,1.21,2.77,1.64,4.09.21.67.22,1,.4,1.5s.88,2.47,1.21,3.5l0,.13.53,1.65c-.48.53-.24,2.27-1.05,2.53-.48.16-1.11-.94-1.41-1.85S31,49.08,30.83,48.53Zm-8.4-11a18,18,0,0,1-.91-1.81c.05-.62-.84-1.11-1.15-2.06a.21.21,0,0,1,.15-.3c.12.13,1.1.38,1.22.5.61-.11.86.17,1.48.09.42,0,.59-.19.93.11.14.44-.3.58.15,2-.27.66.39,1.33.11,1.59.06.18.15.2.26.32.51,1.58,1.21,3.5,1.5,4.38a4,4,0,0,1,.2,1.64c0,.07.31.71.36.86l-.08.51a6.51,6.51,0,0,1-.41,4c.11.33-.52.9-.34,1.45-.14.81-.64.89-1,1.54s-1.25,2.55-2.15,2.76c-.15-.45.15-.66.34-1.21-.09-.9.79-1.19,1.15-2.07a6.28,6.28,0,0,0,.16-1.76,15.45,15.45,0,0,0,.4-2.68,37.2,37.2,0,0,1-.67-4.32c-.05-.19-.18-.43-.26-.69a1.91,1.91,0,0,1-.09-.66Zm-.65,18.74c-.09-.3.56-1.16.71-1.2C22.7,55.77,22.33,56.13,21.78,56.31Zm15.3-29.78s.12,0,.17-.22-.46-1.79-.55-2.09c-.23-.7-.55-1.32-1.32-1.07-.44.14-1.21.51-1.11,1.08s.09,1,.29,1.65c.07.22.53.89.79,1A7.13,7.13,0,0,1,37.08,26.53Zm2.26,1.38c.38,1.18,1.08,1.68,1.81,1.44,1-.32.8-.9.56-1.64-.19-.58-.35-1.34-.89-1.65-.14-.28,0-.44-.11-.7s-.41-.52-.5-.81c-.14-.44-.22-1.06-.37-1.5-.24-.78-.53-1.41-1.67-1.05-.4.13-.68,1.28-.64,1.43a21.61,21.61,0,0,1,1.22,2.64s.51.08.59.3a.82.82,0,0,0-.19.95Zm1,12.31c.08.87,1.06.63,1.5.49a11.94,11.94,0,0,0,1.16-.54c1.18-.38,2.11-.76,3.17-1.1.45-.75.11-1.94.67-2.08-.06-.18-.39-.2-.45-.38s0-.36-.08-.5c-.17-.55-.73-.26-1.06-.31a4.74,4.74,0,0,1-1,.58L41,37.44c-.69.87-1.4.94-1,2.19A1,1,0,0,0,40.39,40.22Zm1.5-16.86c0,.15,0,.23.08.38.15.44,1.5.25,2,.08.77-.25.73-.73.26-2.19s-.93-1.53-1.74-1.27a4,4,0,0,0-1.47.72l.28.88A14.07,14.07,0,0,0,41.89,23.36ZM44.78,44c.18.43.82.63.95,1,0,.66.79.84,1.31.67s-.24-1.63.16-1.76c-.32-1-.13-1.9-.41-2.78-.23-.7-.46-.79-1.6-.82l-.3.21c-.11,0-3.08,1-2.9,1.55C43.77,43.67,44,43.32,44.78,44Zm-1.6-16.3c.14.44,1,.41,1.31.3a3,3,0,0,0,1.06-.5,7.58,7.58,0,0,0-.38-2.31,6.75,6.75,0,0,0-1-.67l-1.87.61Zm5.12,8.72c.11,0,.33-.1.26-.32-.11,0-.4-.11-.51-.08s-.33.11-.26.33S48.08,36.53,48.3,36.45Z"/></g></g></svg>