<svg xmlns="http://www.w3.org/2000/svg" viewBox="0 0 26.61 39.32"><defs><style>.cls-1{fill:#fff;}</style></defs><title>資產 39</title><g id="圖層_2" data-name="圖層 2"><g id="分離模式"><path class="cls-1" d="M11,39.32A2,2,0,0,1,9.73,37.2c0-7.83,0-15.66,0-23.49A2.16,2.16,0,0,0,9,12C6.21,9.25,3.45,6.46.67,3.68A1.65,1.65,0,0,1,.53,1.14,1.69,1.69,0,0,1,3,1.35c2.5,2.48,5,5,7.48,7.47l.63.6a4.23,4.23,0,0,1,4.46-.52,1,1,0,0,0,.83-.27c2.47-2.43,4.91-4.89,7.36-7.34a1.45,1.45,0,0,1,1.72-.5c.48.25,1.08.8,1.12,1.26a2.53,2.53,0,0,1-.7,1.73c-2.5,2.6-5.09,5.12-7.61,7.7a2,2,0,0,0-.52,1.26c-.06,3.26-.08,6.52-.08,9.78q0,7.25.08,14.49a2.31,2.31,0,0,1-1.18,2.31h-.88a2,2,0,0,1-1.25-2.14c.06-2.21,0-4.42,0-6.63V26H13v1c0,3.4,0,6.81,0,10.21a2,2,0,0,1-1.3,2.12Z"/><path class="cls-1" d="M14.33,0a10.86,10.86,0,0,1,2.22,1.4,3.79,3.79,0,0,1,.34,4.66,4,4,0,0,1-4.42,1.6A3.89,3.89,0,0,1,9.75,4,3.84,3.84,0,0,1,12.46.19c.16,0,.31-.13.47-.19Z"/></g></g></svg>