<svg xmlns="http://www.w3.org/2000/svg" xmlns:xlink="http://www.w3.org/1999/xlink" viewBox="0 0 20.39 35.57"><defs><style>.cls-1{fill:url(#標準藍);}.cls-2{fill:url(#標準藍-2);}</style><linearGradient id="標準藍" x1="10.19" y1="35.57" x2="10.19" y2="7.8" gradientUnits="userSpaceOnUse"><stop offset="0" stop-color="#4ca2be"/><stop offset="1" stop-color="#7cd4ea"/></linearGradient><linearGradient id="標準藍-2" x1="12.93" y1="6.85" x2="12.93" y2="0" xlink:href="#標準藍"/></defs><title>資產 41</title><g id="圖層_2" data-name="圖層 2"><g id="分離模式"><path class="cls-1" d="M7.5,11.09a9,9,0,0,0-4.63,5.35c-.12.34-.18.7-.29,1-.27.88-.86,1.27-1.62,1.09a1.29,1.29,0,0,1-.9-1.73A11.93,11.93,0,0,1,5.12,9.47a10,10,0,0,1,5.25-1.66,3,3,0,0,1,3.15,3.4,3.4,3.4,0,0,0,1.76,3.7,12.45,12.45,0,0,0,3.44,1.15c1,.23,1.52.58,1.48,1.39s-.65,1.27-1.72,1.22a9.55,9.55,0,0,1-5.59-2.22c-.13,1.12-.3,2.09-.34,3.07,0,.27.34.6.6.82a19.8,19.8,0,0,1,6.92,10.9,14.64,14.64,0,0,1,.31,2.47,1.59,1.59,0,0,1-1.53,1.83A1.7,1.7,0,0,1,17,34c-.09-.63-.11-1.26-.24-1.88a15.9,15.9,0,0,0-5.14-8.54,1.43,1.43,0,0,0-.15.42,9.52,9.52,0,0,1-3.06,6.83c-1.56,1.54-3.25,2.94-4.93,4.36a1.64,1.64,0,0,1-2.4-.2,1.69,1.69,0,0,1,.26-2.4c1.56-1.4,3.19-2.72,4.69-4.17A5.86,5.86,0,0,0,8,23a2.82,2.82,0,0,0-.61-1.28A3.24,3.24,0,0,1,6.54,19C6.86,16.48,7.16,13.91,7.5,11.09Z"/><path class="cls-2" d="M12.92,6.85a3.43,3.43,0,1,1,3.45-3.39A3.44,3.44,0,0,1,12.92,6.85Z"/></g></g></svg>