<svg xmlns="http://www.w3.org/2000/svg" viewBox="0 0 70 70"><defs><style>.cls-1{fill:#946134;}.cls-2{fill:#fff;}</style></defs><title>資產 35</title><g id="圖層_2" data-name="圖層 2"><g id="分離模式"><circle class="cls-1" cx="35" cy="35" r="35"/><path class="cls-2" d="M24.7,38.42c-.37.12-.86.89-1.48,1.09-1.1.35-2,1.13-2.61,1.33.1.45-1.1-.38-1.27-.93s1-.82,1.91-1.11a7.91,7.91,0,0,1,1.29-.65l.07-.15c.08-.14.27-1.06.34-1.2.7-.87,0-1.63,1.28-3.21A2.82,2.82,0,0,0,24,32.16c0-.08-.07-.22-.18-.19-.66.22-.51.82-1.24,1.05a3.11,3.11,0,0,1-1.15.21c-.36,0-1.21-1.88-1.47-2.28-.5-.81-1.44-1.48-1.77-2.51.54-.18,1.23.82,1.79,1,.77-.25,1-1.2,1.14-1.74s.45-1.12.64-1.42c-.16-.48.5-1.83.38-2.2s-.37-1-.24-1.13.56,0,.8.22c.3.92,1.5.5,1.74,1.27.34,1-1.45,2.53-1.67,3.86-.23.4-1.15,1.34-1,1.86.07.22.76.48,1,.56.5-.21,1,.18,1.36,0,1-.32,1.09-3.76,1.75-4l.14,0c.16.11.77.89.91.92a1.31,1.31,0,0,1,1,.82,9,9,0,0,1-1,2.26c-.3.59-.86,1.09-.86,1.86.17.51,1.14,1,1.85,1.59.3.15.33.63.62.78a3.07,3.07,0,0,1,2,1.55c-.19.67-.46,2.1-1.2,2.33s-1-2.23-2.17-1.85A19.66,19.66,0,0,1,24.7,38.42Zm13.41,8c0-.15-.57-1.52-.62-1.67-.27-.84-.43-2.21-1.27-1.94a3,3,0,0,0-1.28,1.31c.22.33-1,1-1.46,1.52-.37.12-.56,1.4-.79,1.31-.74.72-4,4-4.59,4.64-.11,0-.6.76-.72.8s-.47.39-.58.43a7.32,7.32,0,0,1-2.43,1.92l0-.15c.49-.73,1.36-1.17,1.93-1.92s1-2,1.75-2.51c-.1-.17,1-.88,1.32-1.56a25.44,25.44,0,0,0,2.52-3.49,5,5,0,0,1,.45-.87c.23-.28,1.41-1.67,1.12-2.56,0,0-.07-.21-.14-.19l-3.67,1.18a8.16,8.16,0,0,1-2.73,1.37L23.39,45.7a12.42,12.42,0,0,1-2.7,1.19c-.22.07-1.05-.75-1.77-1-.85-.49,1.81-1.31,4.56-2.2.67-.21,5.48-2.25,6.14-2.46.84-.27,1.71-.72,2-.82,1.29-.42,2-.72,3.62-1.25.32-.51-.11-1.83-.25-2.27l-.12-.37c-.1-.33-.23-.61-.71-.46s-.42,1.47-1.08,1.69-1-.65-1.16-1.09c-.25-.77-.31-1.6-.55-2.46,0,0-1.09-3.62-1.65-5.38-.22-.66-.34-1.56-.59-2.33-.05-.14-.18-1.31-.21-1.39a7.46,7.46,0,0,0-1.12-2c-.26-.28-.62-.4-.73-.73s0-.25.22-.32c.52-.17.46.3,1.43-.09a10.4,10.4,0,0,0,.91-2.49,4.89,4.89,0,0,0-.1-1.55l0-.11c-.08-.22-.58-1.27-.65-1.49l.08-.27.66-.21c.3.3,1.63.53,2.18,1.24.88.45.6.82.91.8.35.82-.75,1.95-1,2.53a3.2,3.2,0,0,1-.86,1.37c-.47.15-1.21.51-1.14.73a2.33,2.33,0,0,0,1,1.06,6.31,6.31,0,0,0,1.64-.45c.15,0,.38-.85.45-.87s.71-.43,1-.57c.15,0,.3-.59.45-.64s.51-.65.78-1.1,2,.17,2.63.62c.31,1,.7.66,1.12,1a3.4,3.4,0,0,0,.74-.72,11.51,11.51,0,0,0,.73-3c.47-.16-.13-2,.86-2.35.74-.24,2.71.47,2.95,1.24.35-.07-.89,1.38-1.74,3-.67.46-.7,1.12-1.12,1.82-.18.46-.55.83-.38,1.34l1.57.87c.18,0,.3.39.32.47a3.17,3.17,0,0,1-.19,1.68,6.51,6.51,0,0,1-.13.85c-.7.23-1.38.49-1.76-.16-.16-.52-1.34-4.43-3.18-3.84-.22.07-.13.33,0,.62l.11.33c0,.39.12.89.11,1.1l.29.39c.49,1.54.51,2.35.88,3.49.45,1.39.87,2.47,1.28,3.72,0,.6-.11,2.55-.8,2.57-2,0-.85-2.64-2.69-2.05-.66.21-2.16.82-2,1.26.5,1.54,3.56.47,4,2,0,.11.06.3.12.49a1,1,0,0,0,1.27.56c1.73-.56,3.15-1.42,5-2,.47-.16,1.05-.26,1.6-.44a8.17,8.17,0,0,0,2.07-1c.74-.24.82-1.36,1.48-1.45,1.15.44,3,1.42,3.21,2.05.17.14-.12.36-.12.36l-2.54.81a3.34,3.34,0,0,0-.84,0,5.83,5.83,0,0,1-1.11.44c-1.73.56-3.17.86-5.19,1.51l-.2.15c0,.68,1.29.72,1.38,1s-.44.39-.59.43c-.44.15-.83,0-1.2.07-.21.07-.29.09-.27.17a2,2,0,0,0,2.05,1c.07,0,.7.42.85.37a5.83,5.83,0,0,0,1.89.36c.74-.23,1.37.46,1.73.34a7.9,7.9,0,0,1,3.27-.08,19.67,19.67,0,0,1,3.76-.4c-.11.44-.63.69-.81.91-.11,0-.82.83-.93.87a7.78,7.78,0,0,0-2,2.74c-.61.23-1.36-.21-1.8-.32-.07,0-1-.15-1.1-.13-.39,0-.73-.25-1-.25-1.07-.31-2.27-.25-3.21-.91-.2-.1-.88-.7-1.38-1-.33-.62-1.11-.53-1.5-1.14a11.51,11.51,0,0,0-.87-1.18c-.44-.59-.64-1.73-1.67-1.4-.69,0-.39.81-.31,1.07.71,2.2,1.43,3.92,2.07,5.9a7.82,7.82,0,0,1,.14.93A3.38,3.38,0,0,0,42,49.58a5,5,0,0,1-1.19,1.84c-1,.33-1.42-.63-1.69-1.48l-.24-.73C38.6,48.25,38.36,47.24,38.11,46.47ZM24.17,36.93c0,.07.1.17.21.14,1.65-.54,2.88-.48,2.33-2.21,0-.11-.8-1.33-1-1.26s-.45.51-.52.66c-.57,1.27-1.3,1.63-1,2.51A1,1,0,0,0,24.17,36.93Zm8.5-8.86c.15,0,.39-.29.54-.33.48-.16,2-.37,2.5-1.3l0-.09c0-.15,0-.88-.07-1a2.92,2.92,0,0,0-.2-1.14c-.19-.59-.44-1.61-1.38-1.26a18,18,0,0,1-2.06.9c-1.29.66-1.37.53-.24,4.05C32,28.29,32.45,28.14,32.67,28.07Zm1.27,5,1.39-.45c.26-.33.3-.59.67-.7l.4-.13c1.29-.42.46-1.61.54-2.24l-.68-1.61a.41.41,0,0,0-.41-.27A8.83,8.83,0,0,0,32.73,29c-.86.47-.14,2.07.26,3.32C33.1,32.68,33.5,33.16,33.94,33Zm8.87-1.16c-.59.19-1.27.61-1.54-.24a.37.37,0,0,1,0-.37c.09-1.25,1.59-2.62,1.32-3.47,0-.11.37-.6.32-.75.23-.56.31-1.07.51-1.46a14.82,14.82,0,0,0,1-2.53c-.17-.55.69-1.88.77-2.92,0-.25-.07-.95.26-1.05a4,4,0,0,1,2.41,1.41.57.57,0,0,1-.28.65A20.41,20.41,0,0,0,46,25.25c.09.3.13.29.46.43,2,.81,4.34,2,4.81,3.47.27.84-.76,1.06-1.23,1.49-.29.22-.78,1-1.1,1.08-.92.3-1.53-1.57-2.63-1.21S44,31.48,42.81,31.86Zm.74-1.46c3.27-1,3.37-.88,3-2.16-.37-.5-.64-1.86-1.56-1.57-.63.2-1.5,1.66-1.78,2.52-.07.43-.67.46-.46,1.12C42.82,30.64,43.48,30.43,43.55,30.4Z"/></g></g></svg>