<svg xmlns="http://www.w3.org/2000/svg" xmlns:xlink="http://www.w3.org/1999/xlink" viewBox="0 0 1323.64 56.45"><defs><style>.cls-1{fill:url(#標準藍);}.cls-2{fill:url(#標準藍-2);}.cls-3{fill:url(#標準藍-3);}.cls-4{fill:url(#標準藍-4);}.cls-5{fill:url(#標準藍-5);}.cls-6{fill:url(#標準藍-6);}.cls-7{fill:url(#標準藍-7);}.cls-8{fill:url(#標準藍-8);}.cls-9{fill:url(#標準藍-9);}.cls-10{fill:url(#標準藍-10);}.cls-11{fill:url(#標準藍-11);}.cls-12{fill:url(#標準藍-12);}.cls-13{fill:url(#標準藍-13);}.cls-14{fill:url(#標準藍-14);}.cls-15{fill:url(#標準藍-15);}.cls-16{fill:url(#標準藍-16);}.cls-17{fill:url(#標準藍-17);}.cls-18{fill:url(#標準藍-18);}.cls-19{fill:url(#標準藍-19);}.cls-20{fill:url(#標準藍-20);}.cls-21{fill:url(#標準藍-21);}.cls-22{fill:url(#標準藍-22);}.cls-23{fill:url(#標準藍-23);}</style><linearGradient id="標準藍" x1="13.86" y1="56.45" x2="13.86" gradientUnits="userSpaceOnUse"><stop offset="0" stop-color="#4ca2be"/><stop offset="1" stop-color="#7cd4ea"/></linearGradient><linearGradient id="標準藍-2" x1="71.93" y1="55.44" x2="71.93" y2="9.15" xlink:href="#標準藍"/><linearGradient id="標準藍-3" x1="139.03" y1="55.88" x2="139.03" y2="8.28" xlink:href="#標準藍"/><linearGradient id="標準藍-4" x1="202.57" y1="56.24" x2="202.57" y2="9.15" xlink:href="#標準藍"/><linearGradient id="標準藍-5" x1="266.18" y1="55.88" x2="266.18" y2="8.28" xlink:href="#標準藍"/><linearGradient id="標準藍-6" x1="369.5" y1="55.44" x2="369.5" y2="1.01" xlink:href="#標準藍"/><linearGradient id="標準藍-7" x1="430.63" y1="55.59" x2="430.63" y2="8.71" xlink:href="#標準藍"/><linearGradient id="標準藍-8" x1="471.88" y1="55.44" x2="471.88" y2="9.15" xlink:href="#標準藍"/><linearGradient id="標準藍-9" x1="545.5" y1="55.66" x2="545.5" y2="0.43" xlink:href="#標準藍"/><linearGradient id="標準藍-10" x1="599.72" y1="56.24" x2="599.72" y2="8.28" xlink:href="#標準藍"/><linearGradient id="標準藍-11" x1="661.5" y1="56.24" x2="661.5" y2="8.28" xlink:href="#標準藍"/><linearGradient id="標準藍-12" x1="718.73" y1="55.59" x2="718.73" y2="9.15" xlink:href="#標準藍"/><linearGradient id="標準藍-13" x1="771.94" y1="56.24" x2="771.94" y2="8.28" xlink:href="#標準藍"/><linearGradient id="標準藍-14" x1="836.06" y1="56.24" x2="836.06" y2="8.28" xlink:href="#標準藍"/><linearGradient id="標準藍-15" x1="885.23" y1="55.44" x2="885.23" y2="9.15" xlink:href="#標準藍"/><linearGradient id="標準藍-16" x1="931.35" y1="56.24" x2="931.35" y2="8.28" xlink:href="#標準藍"/><linearGradient id="標準藍-17" x1="986.43" y1="55.44" x2="986.43" y2="8.28" xlink:href="#標準藍"/><linearGradient id="標準藍-18" x1="1036.4" y1="55.59" x2="1036.4" y2="9.15" xlink:href="#標準藍"/><linearGradient id="標準藍-19" x1="1117.9" y1="56.45" x2="1117.9" y2="1.01" xlink:href="#標準藍"/><linearGradient id="標準藍-20" x1="1166.53" y1="55.44" x2="1166.53" y2="9.15" xlink:href="#標準藍"/><linearGradient id="標準藍-21" x1="1207.9" y1="55.59" x2="1207.9" y2="9.15" xlink:href="#標準藍"/><linearGradient id="標準藍-22" x1="1252.83" y1="55.59" x2="1252.83" y2="9.15" xlink:href="#標準藍"/><linearGradient id="標準藍-23" x1="1299.34" y1="55.44" x2="1299.34" y2="8.28" xlink:href="#標準藍"/></defs><title>資產 47</title><g id="圖層_2" data-name="圖層 2"><g id="分離模式"><path class="cls-1" d="M1.08,54.51C.07,54,0,53.72,0,51.77c0-3.6.29-6.48.36-7.63C.43,43.35.58,43,.94,43s.5.21.5.79a12.38,12.38,0,0,0,.22,2.66c1.08,5.33,5.83,7.35,10.65,7.35,6.92,0,10.3-5,10.3-9.58,0-5-2.09-7.85-8.28-13l-3.24-2.66C3.46,22.32,1.73,17.86,1.73,13c0-7.7,5.76-13,14.9-13a28,28,0,0,1,6.7.72,11.63,11.63,0,0,0,2.52.36c.58,0,.72.14.72.5s-.29,2.74-.29,7.64c0,1.15-.14,1.65-.5,1.65s-.51-.36-.58-.93a12.57,12.57,0,0,0-.93-3.6c-.44-.8-2.38-3.82-9-3.82-5,0-8.86,3.1-8.86,8.35,0,4.11,1.87,6.7,8.78,12.1l2,1.58c8.5,6.7,10.51,11.17,10.51,16.93a14.91,14.91,0,0,1-6.12,12,18.91,18.91,0,0,1-10.87,3A21.83,21.83,0,0,1,1.08,54.51Z"/><path class="cls-2" d="M84.67,28.44c.22,0,.44,0,.44-.36V26.79c0-9.51,0-11.16-.15-13.11s-.43-2.95-2.81-3.38a14.23,14.23,0,0,0-1.8-.15c-.5,0-.86-.21-.86-.5s.36-.5,1-.5c3,0,7.27.21,7.56.21s4.32-.21,6.48-.21c.72,0,1.15.07,1.15.5,0,.22-.21.5-.79.5a10,10,0,0,0-1.44.15c-1.94.28-2.23,1.44-2.38,3.45S91,17.35,91,26.86v10.8c0,5.9,0,10.58.29,13.18.22,1.72.58,3.16,2.45,3.38a18.41,18.41,0,0,0,2.52.22c.57,0,.93.21.93.5s-.36.5-1.08.5c-3.6,0-7.77-.21-8.13-.21s-4.47.21-6.41.21c-.72,0-1.08-.14-1.08-.57,0-.22.21-.43.79-.43A6.23,6.23,0,0,0,83,54.29c1.22-.21,1.58-1.8,1.8-3.45a120.41,120.41,0,0,0,.36-13V31.47a.42.42,0,0,0-.44-.43H58.54c-.22,0-.36.07-.36.43v6.41A123.27,123.27,0,0,0,58.54,51c.21,1.58.57,3,2.44,3.24a20.58,20.58,0,0,0,2.6.22c.5,0,.86.21.86.5s-.29.5-.94.5c-3.67,0-7.92-.21-8.28-.21s-4.6.21-6.48.21c-.72,0-1.15-.14-1.15-.5s.15-.5.79-.5a7.26,7.26,0,0,0,1.73-.22c1.3-.29,1.59-1.66,1.8-3.24.43-2.59.36-7.42.36-13.32V27c0-9.5,0-11.37-.14-13.32s-.65-3.24-2.74-3.45a17.14,17.14,0,0,0-1.94-.15c-.51,0-.79-.21-.79-.43,0-.43.36-.5,1.08-.5,3.09,0,6.55.21,7.48.21.29,0,4.47-.21,6.48-.21.72,0,1.08.14,1.08.5s-.28.43-.72.43a6.08,6.08,0,0,0-1.44.15c-1.8.28-2.23,1.51-2.37,3.52s-.07,3.53-.07,13v1.29c0,.36.21.36.43.36Z"/><path class="cls-3" d="M118.44,11.23c0-2.23.22-3,.79-3s1.73,1.44,2.23,2c.65.72,10.66,10.94,20.74,21.24,5.62,5.47,12.82,12.89,14.69,14.61l-.79-29.95c-.07-3.89-.51-5.18-2.45-5.69a18.86,18.86,0,0,0-2.81-.29c-.72,0-.86-.28-.86-.57s.57-.43,1.29-.43c3.1,0,6.12.21,6.77.21s3-.21,5.76-.21c.79,0,1,.07,1,.43s-.22.5-.65.57-1,.08-1.8.22c-1.65.36-2.16,1.08-2.16,5.4l-.14,36.15c0,3.6-.15,4-.65,4s-1.22-.51-4.75-3.82c-.29-.14-10.3-10.08-16.56-16.2L121.61,18.72l.93,28.16c.15,5,.58,6.84,2.38,7.27a12.38,12.38,0,0,0,3,.29c.58,0,.87.21.87.5s-.36.5-1.16.5c-3.88,0-6.48-.21-7-.21s-3.17.21-6.27.21c-.64,0-1.08-.07-1.08-.5s.29-.5,1-.5a7.1,7.1,0,0,0,2.23-.29c1.59-.5,2-2.45,2-7.71C118.44,12.1,118.51,23.19,118.44,11.23Z"/><path class="cls-4" d="M190.29,35.43c0,8.78,1.66,12.53,4.4,15a13.69,13.69,0,0,0,9.5,3.32c3.75,0,7.13-1,9.87-4.18s3.53-8.78,3.53-15V26.86c0-9.43,0-11.09-.15-13-.14-2.09-.36-3.17-2.66-3.53a17,17,0,0,0-2-.15c-.43,0-.72-.21-.72-.43,0-.43.36-.57,1-.57,3.1,0,6.7.21,7,.21s3.46-.21,5.48-.21c.72,0,1,.14,1,.5s-.28.5-.72.5a8.75,8.75,0,0,0-1.29.08c-2,.21-2.31,1.51-2.45,3.6-.07,1.94-.07,3.6-.07,13v6.41c0,6.48-.72,14.25-5.83,18.65-4.69,4-9.29,4.32-13.18,4.32-2,0-8.79,0-13.47-4.32-3.09-2.88-5.33-7.2-5.33-16.13V26.86c0-9.51,0-11.16-.21-13.11s-.43-3.17-2.67-3.45a14.31,14.31,0,0,0-1.87-.15c-.5,0-.79-.21-.79-.43,0-.43.29-.57,1.08-.57,3.1,0,7,.21,7.49.21S192,9.15,194,9.15c.79,0,1,.14,1,.5s-.51.5-.87.5a14.81,14.81,0,0,0-1.58.15c-1.73.21-2,1.44-2.16,3.45s-.08,3.6-.08,13.11Z"/><path class="cls-5" d="M245.59,11.23c0-2.23.22-3,.79-3s1.73,1.44,2.23,2c.65.72,10.66,10.94,20.74,21.24C275,36.94,282.17,44.36,284,46.08l-.79-29.95c-.07-3.89-.51-5.18-2.45-5.69a18.86,18.86,0,0,0-2.81-.29c-.72,0-.86-.28-.86-.57s.57-.43,1.29-.43c3.1,0,6.13.21,6.77.21s3-.21,5.76-.21c.8,0,1,.07,1,.43s-.21.5-.65.57-1,.08-1.8.22c-1.65.36-2.16,1.08-2.16,5.4l-.14,36.15c0,3.6-.14,4-.65,4s-1.22-.51-4.75-3.82c-.29-.14-10.3-10.08-16.56-16.2L248.76,18.72l.93,28.16c.15,5,.58,6.84,2.38,7.27a12.38,12.38,0,0,0,3,.29c.58,0,.87.21.87.5s-.36.5-1.16.5c-3.88,0-6.48-.21-7-.21s-3.17.21-6.26.21c-.65,0-1.08-.07-1.08-.5s.28-.5,1-.5a7.19,7.19,0,0,0,2.24-.29c1.58-.5,1.94-2.45,1.94-7.71C245.59,12.1,245.66,23.19,245.59,11.23Z"/><path class="cls-6" d="M384.41,23.83a.38.38,0,0,0,.43-.43V21.89c0-11.23,0-13.25-.14-15.55s-.72-3.6-3.1-4.11A13.88,13.88,0,0,0,379.15,2c-.29,0-.57-.15-.57-.44s.36-.57,1.15-.57c3.24,0,7.77.21,8.13.21s4.9-.21,7.06-.21c.79,0,1.15.14,1.15.57s-.29.44-.57.44a10.88,10.88,0,0,0-1.8.21c-1.95.36-2.52,1.59-2.67,4.11-.14,2.3-.14,4.32-.14,15.55V34.56c0,6.92,0,12.6.36,15.63.21,2.09.65,3.67,2.81,4,1,.14,2.59.29,3.24.29.43,0,.57.21.57.43s-.36.57-1.15.57c-4,0-8.5-.21-8.86-.21s-4.89.21-7.05.21c-.79,0-1.15-.14-1.15-.57,0-.22.14-.43.57-.43a11.44,11.44,0,0,0,2.16-.29c1.44-.29,1.8-1.87,2.09-4,.36-3,.36-8.71.36-15.63V27a.41.41,0,0,0-.43-.43H353.88c-.22,0-.43.07-.43.43v7.56c0,6.92,0,12.6.36,15.63.21,2.09.64,3.67,2.8,4,1,.14,2.6.29,3.24.29.44,0,.58.21.58.43s-.36.57-1.15.57c-4,0-8.5-.21-8.86-.21s-4.9.21-7.06.21c-.79,0-1.15-.14-1.15-.57,0-.22.15-.43.58-.43a11.44,11.44,0,0,0,2.16-.29c1.44-.29,1.8-1.87,2.09-4,.36-3,.36-8.71.36-15.63V21.89c0-11.23,0-13.25-.15-15.55s-.72-3.6-3.09-4.11A13.88,13.88,0,0,0,341.71,2c-.29,0-.58-.15-.58-.44s.36-.57,1.15-.57c3.24,0,7.78.21,8.14.21s4.9-.21,7.06-.21c.79,0,1.15.14,1.15.57s-.29.44-.58.44a11.11,11.11,0,0,0-1.8.21c-1.94.36-2.52,1.59-2.66,4.11-.14,2.3-.14,4.32-.14,15.55V23.4c0,.36.21.43.43.43Z"/><path class="cls-7" d="M421.92,26.86c0-9.43,0-11.16-.15-13.11s-.65-3-2.73-3.45a12.39,12.39,0,0,0-1.73-.15c-.51,0-.94-.21-.94-.43,0-.43.36-.57,1.08-.57,1.44,0,3.39.14,7.42.21.36,0,13.18,0,14.62-.07a9.77,9.77,0,0,0,2.8-.36,2.36,2.36,0,0,1,.8-.22c.14,0,.28.15.28.51a32.73,32.73,0,0,0-.57,3.24c-.07,1.22-.15,2.37-.22,3.74,0,.65-.14,1.08-.5,1.08s-.51-.29-.51-.79a6.7,6.7,0,0,0-.5-2.3c-.43-1.44-1.08-1.95-4.68-2.16-.94-.08-8.07-.15-8.21-.15s-.36.15-.36.58V28.8c0,.43.07.72.43.72.87,0,8.21-.07,9.72-.21s2.74-.29,3.32-1.08c.28-.44.5-.58.79-.58s.29.07.29.43-.29,1.73-.51,3.82-.21,3.46-.29,4.39c-.07.58-.21.79-.5.79s-.43-.43-.43-.93a7.79,7.79,0,0,0-.22-1.73c-.29-.94-.72-1.94-3.45-2.16-1.66-.14-7.49-.29-8.65-.29-.43,0-.5.22-.5.51v5.25c0,2.23-.07,8.57,0,9.79.14,2.67.5,4,2,4.68a13.53,13.53,0,0,0,5.25.65,21.67,21.67,0,0,0,5.48-.43c2.16-.65,2.66-2.09,3.24-4.75.14-.72.36-1,.64-1,.44,0,.44.65.44,1.08s-.58,5-.8,6.26c-.28,1.44-.79,1.59-3.16,1.59-4.76,0-6.77-.15-9.29-.15s-5.84-.21-8.5-.21c-1.66,0-3,.21-4.75.21-.65,0-1-.14-1-.5s.29-.5.65-.5a5.61,5.61,0,0,0,1.44-.22c1.29-.29,2.16-1.22,2.3-5.69.07-2.45.15-5.4.15-10.87Z"/><path class="cls-8" d="M468.14,26.86c0-9.51,0-11.23-.14-13.18s-.58-3-2.09-3.31c-.72-.14-1.23-.14-1.66-.22s-.79-.21-.79-.5.29-.5,1.08-.5c2.23,0,6.34.21,6.55.21s4.47-.21,6.48-.21c.72,0,1.08.14,1.08.5s-.21.43-.79.5-.79.08-1.3.15c-2.08.28-2.3,1.37-2.44,3.45s-.08,3.6-.08,13.11v10.8c0,5.54-.07,10.58.29,13.18.29,2.08.58,2.88,2.45,3.31a17.45,17.45,0,0,0,2.74.29c.64.07.79.21.79.5s-.29.5-1,.5c-3.67,0-7.85-.21-8.21-.21-.21,0-4.46.21-6.48.21-.65,0-1.15-.14-1.15-.5s.29-.5.94-.5a8.87,8.87,0,0,0,1.72-.22c1.23-.29,1.44-1.73,1.66-3.46a127.71,127.71,0,0,0,.36-13.1Z"/><path class="cls-9" d="M535.82,21.89c0-11.23,0-13.25-.14-15.55s-.72-3.6-3.1-4.11A17.56,17.56,0,0,0,530.49,2c-.5-.08-.94-.15-.94-.44s.36-.57,1.16-.57c1.65,0,3.6,0,8.13.21.51,0,14.84,0,16.49-.07a11.87,11.87,0,0,0,3.32-.43,1.68,1.68,0,0,1,.79-.29c.21,0,.29.29.29.65a29.77,29.77,0,0,0-.58,3.38c-.07,1.08-.14,2.45-.29,4.33-.07.71-.29,1.22-.57,1.22-.44,0-.58-.36-.58-.94a7,7,0,0,0-.36-2.37c-.51-1.66-2-2.38-5.19-2.67-1.22-.14-9.07-.21-9.86-.21-.29,0-.43.21-.43.72V24.41c0,.5.07.72.43.72.94,0,9.79,0,11.45-.14,1.94-.15,2.88-.36,3.6-1.23.36-.43.58-.72.86-.72s.36.15.36.58-.36,1.65-.57,4-.22,3.89-.29,4.9c-.07.72-.22,1.08-.5,1.08-.44,0-.51-.58-.51-1.15a6.41,6.41,0,0,0-.29-2c-.28-1.08-1.15-2.09-3.74-2.38-1.95-.21-9.07-.36-10.3-.36a.46.46,0,0,0-.5.51v6.33c0,2.45-.07,10.8,0,12.32.14,2.95.57,4.53,2.37,5.25,1.23.51,3.17.65,6,.65a23.7,23.7,0,0,0,6.48-.65c2.31-.72,3.1-2.23,3.67-5.33.15-.79.29-1.08.65-1.08s.43.58.43,1.08a70.06,70.06,0,0,1-.93,7c-.51,1.87-1.08,1.87-3.89,1.87-5.33,0-7.71-.14-10.51-.22s-6.2-.21-9-.21c-1.73,0-3.46.29-5.33.21-.8,0-1.15-.14-1.15-.57,0-.22.35-.36.79-.43a10.35,10.35,0,0,0,1.65-.22c1.51-.36,2.45-1.37,2.6-6.77.07-2.81.14-6.48.14-12.89Z"/><path class="cls-10" d="M585.79,49.68c-6.12-5.32-7.71-12.38-7.71-18.36a24.11,24.11,0,0,1,7.27-16.63c3.89-3.74,9.72-6.41,19.37-6.41a63.19,63.19,0,0,1,9.51.79c2.3.36,4.61.72,6.34.8.57,0,.64.36.64.71,0,.58-.21,1.23-.36,3.53-.07,2-.07,5.76-.14,6.63s-.22,1.37-.58,1.37-.57-.44-.57-1.37a8.49,8.49,0,0,0-2.81-6.27c-2.16-1.87-7.2-3.67-12.75-3.67-8,0-11.66,2.23-13.82,4.18-4.68,4.25-5.76,9.43-5.76,15.77a22.52,22.52,0,0,0,22.39,22.46c4.9,0,8.5-.5,11-3a9.86,9.86,0,0,0,2.38-5.18c.14-.72.36-1.08.79-1.08s.36.5.36,1a69.69,69.69,0,0,1-1.44,8,2.37,2.37,0,0,1-1.66,1.8c-2.52,1.08-7.34,1.44-11.38,1.44C597.38,56.24,590.9,54.08,585.79,49.68Z"/><path class="cls-11" d="M636.33,32.19c0-9.58,7.42-23.91,25.2-23.91,14.26,0,25.13,8.5,25.13,23,0,13.75-10.15,25-25.49,25C643.53,56.24,636.33,43.13,636.33,32.19Zm43.56.86c0-14.47-8.93-22.54-18.79-22.54S643,16.71,643,30.31c0,14.12,7.84,23.48,19.94,23.48C667.8,53.79,679.89,51.34,679.89,33.05Z"/><path class="cls-12" d="M715,37.8c0,8.28.29,12.46,1.52,13.61s2.59,1.44,7.56,1.44c3.17,0,6.05,0,7.63-2a9.37,9.37,0,0,0,1.37-3.6c.07-.58.21-.87.57-.87s.44.22.44.94a46.77,46.77,0,0,1-.87,6.48c-.43,1.44-.36,1.8-3.81,1.8-4.9,0-10.3-.36-17.5-.36-2.38,0-3.82.21-6.34.21-.72,0-1.15-.14-1.15-.57,0-.22.22-.43.79-.43a6.75,6.75,0,0,0,1.73-.15c1.22-.21,1.66-1.65,1.87-3.38.43-2.74.29-7.71.29-13.25V26.86c0-9.51,0-11.09-.14-13s-.44-3.32-2.88-3.6a12.61,12.61,0,0,0-1.8-.08c-.51,0-.8-.21-.8-.5s.36-.5,1.08-.5c3,0,7.35.21,7.49.21,1,0,5.4-.21,7.42-.21.72,0,.93.21.93.5s-.36.5-.79.5-1.22.08-1.94.15c-2,.28-2.45,1.44-2.59,3.53-.15,1.94-.08,3.52-.08,13Z"/><path class="cls-13" d="M746.78,32.19c0-9.58,7.41-23.91,25.2-23.91,14.26,0,25.13,8.5,25.13,23,0,13.75-10.15,25-25.49,25C754,56.24,746.78,43.13,746.78,32.19Zm43.56.86c0-14.47-8.93-22.54-18.79-22.54s-18.08,6.2-18.08,19.8c0,14.12,7.85,23.48,19.95,23.48C778.24,53.79,790.34,51.34,790.34,33.05Z"/><path class="cls-14" d="M855.28,50.12c0,2.88-.07,3-.86,3.38-4,2-9.72,2.74-13.25,2.74-4.68,0-13.75-.36-21.1-6.48a22.71,22.71,0,0,1-7.77-17.5c0-9.79,5-16.78,10.87-20.31,5.54-3.24,11.66-3.67,16.06-3.67a56.05,56.05,0,0,1,10.29,1c1.16.21,4,.58,5.48.65.57,0,.57.29.57.57a81.5,81.5,0,0,0-.5,9.36c0,1-.07,1.3-.58,1.3s-.43-.43-.5-.86a9.41,9.41,0,0,0-1.37-4.47c-1.66-2.37-6.84-5-14.91-5-3.88,0-8.42.15-13.24,3.82-3.68,2.81-6.05,8.28-6.05,15.41A24.93,24.93,0,0,0,825,46.73a22.39,22.39,0,0,0,16.34,6.7,17.71,17.71,0,0,0,6.85-1.23A2.42,2.42,0,0,0,849.38,50V39.68c0-4.76-.36-5.69-2.88-6a12.12,12.12,0,0,0-1.73-.15c-.58,0-.86-.28-.86-.5s.28-.5,1.08-.5c2.88,0,7,.14,7.34.14s4.54-.14,6.48-.14c.72,0,1,.14,1,.5s-.22.5-.86.5a6.73,6.73,0,0,0-1.23.08c-1.73.21-2.16,1.51-2.3,3.6s-.15,3.88-.15,6.48Z"/><path class="cls-15" d="M881.49,26.86c0-9.51,0-11.23-.15-13.18s-.57-3-2.08-3.31c-.72-.14-1.23-.14-1.66-.22s-.79-.21-.79-.5.29-.5,1.08-.5c2.23,0,6.33.21,6.55.21s4.46-.21,6.48-.21c.72,0,1.08.14,1.08.5s-.22.43-.79.5-.79.08-1.3.15c-2.09.28-2.3,1.37-2.45,3.45s-.07,3.6-.07,13.11v10.8c0,5.54-.07,10.58.29,13.18.29,2.08.58,2.88,2.45,3.31a17.35,17.35,0,0,0,2.73.29c.65.07.8.21.8.5s-.29.5-1,.5c-3.67,0-7.85-.21-8.21-.21s-4.46.21-6.48.21c-.65,0-1.15-.14-1.15-.5s.29-.5.93-.5a9,9,0,0,0,1.73-.22c1.23-.29,1.44-1.73,1.66-3.46a127.71,127.71,0,0,0,.36-13.1Z"/><path class="cls-16" d="M917.42,49.68c-6.12-5.32-7.71-12.38-7.71-18.36A24.11,24.11,0,0,1,917,14.69c3.89-3.74,9.72-6.41,19.37-6.41a63.19,63.19,0,0,1,9.51.79c2.3.36,4.61.72,6.33.8.58,0,.65.36.65.71,0,.58-.21,1.23-.36,3.53-.07,2-.07,5.76-.14,6.63s-.22,1.37-.58,1.37-.57-.44-.57-1.37a8.49,8.49,0,0,0-2.81-6.27c-2.16-1.87-7.2-3.67-12.75-3.67-8,0-11.66,2.23-13.82,4.18-4.68,4.25-5.76,9.43-5.76,15.77a22.52,22.52,0,0,0,22.39,22.46c4.9,0,8.5-.5,11-3a9.93,9.93,0,0,0,2.37-5.18c.15-.72.36-1.08.8-1.08s.36.5.36,1a69.69,69.69,0,0,1-1.44,8,2.39,2.39,0,0,1-1.66,1.8c-2.52,1.08-7.34,1.44-11.38,1.44C929,56.24,922.53,54.08,917.42,49.68Z"/><path class="cls-17" d="M978.33,37.88a.75.75,0,0,0-.72.57l-3.17,9a18.17,18.17,0,0,0-1.22,5.11c0,1.3.79,1.88,2.37,1.88h.51c.64,0,.86.21.86.5s-.58.5-1.08.5c-1.58,0-4.9-.21-5.69-.21s-3.89.21-6.91.21c-.79,0-1.15-.14-1.15-.5s.28-.5.86-.5a9.12,9.12,0,0,0,1.44-.08c3.1-.28,4.32-2.66,5.55-5.68l14.4-37.95c.79-2.09,1-2.45,1.51-2.45s.65.29,1.44,2.3c1,2.38,10.8,27.51,14.62,36.51,2.37,5.69,4.46,6.63,5.47,7a6.84,6.84,0,0,0,2.45.36c.5,0,.86.14.86.5s-.29.5-1.08.5-6.12,0-10.94-.14c-1.37-.07-1.8-.14-1.8-.5a.6.6,0,0,1,.5-.51c.29-.14.72-.5.29-1.58L992,38.24a.64.64,0,0,0-.58-.36Zm12.24-2.52c.29,0,.29-.22.21-.44L985.1,19c-.36-1-.44-1-.8,0l-5.4,15.91c-.14.29,0,.44.15.44Z"/><path class="cls-18" d="M1032.62,37.8c0,8.28.28,12.46,1.51,13.61s2.59,1.44,7.56,1.44c3.17,0,6,0,7.63-2a9.21,9.21,0,0,0,1.37-3.6c.07-.58.22-.87.58-.87s.43.22.43.94a45.28,45.28,0,0,1-.87,6.48c-.43,1.44-.36,1.8-3.81,1.8-4.9,0-10.3-.36-17.5-.36-2.38,0-3.82.21-6.34.21-.72,0-1.15-.14-1.15-.57,0-.22.22-.43.79-.43a6.72,6.72,0,0,0,1.73-.15c1.23-.21,1.66-1.65,1.87-3.38.44-2.74.29-7.71.29-13.25V26.86c0-9.51,0-11.09-.14-13s-.43-3.32-2.88-3.6a12.54,12.54,0,0,0-1.8-.08c-.51,0-.8-.21-.8-.5s.36-.5,1.09-.5c3,0,7.34.21,7.48.21,1,0,5.4-.21,7.42-.21.72,0,.94.21.94.5s-.36.5-.8.5-1.22.08-1.94.15c-2,.28-2.45,1.44-2.59,3.53-.15,1.94-.07,3.52-.07,13Z"/><path class="cls-19" d="M1097.7,7.85c-1.58-4-2.66-4.83-5.18-5.55a11.54,11.54,0,0,0-2.74-.28c-.43,0-.57-.22-.57-.51s.72-.5,1.87-.5c3.45,0,7.34.21,8.21.21s3.81-.21,6.55-.21c1.3,0,1.94.14,1.94.5s-.21.51-.72.51a8.28,8.28,0,0,0-2.73.36,1.43,1.43,0,0,0-.94,1.44,21.25,21.25,0,0,0,1.44,4.6l14.69,38.24c4.18-9.65,13.82-34.78,15.41-40a10.39,10.39,0,0,0,.65-2.74,1.78,1.78,0,0,0-.94-1.66,9.29,9.29,0,0,0-2.73-.28c-.44,0-.8-.08-.8-.44s.43-.57,1.59-.57c2.88,0,6.19.21,7,.21.44,0,3.53-.21,5.62-.21.79,0,1.22.14,1.22.5s-.28.51-.86.51a6.58,6.58,0,0,0-3.46.86c-.93.65-2,1.87-4,6.77-.79,2-4.39,10.66-8.06,19.51-4.39,10.52-7.63,18.29-9.29,21.82-2,4.32-2.3,5.47-3,5.47-.87,0-1.23-1-2.6-4.46Z"/><path class="cls-20" d="M1162.79,26.86c0-9.51,0-11.23-.14-13.18s-.58-3-2.09-3.31c-.72-.14-1.23-.14-1.66-.22s-.79-.21-.79-.5.29-.5,1.08-.5c2.23,0,6.34.21,6.55.21s4.47-.21,6.48-.21c.72,0,1.08.14,1.08.5s-.21.43-.79.5-.79.08-1.3.15c-2.08.28-2.3,1.37-2.44,3.45s-.08,3.6-.08,13.11v10.8c0,5.54-.07,10.58.29,13.18.29,2.08.58,2.88,2.45,3.31a17.45,17.45,0,0,0,2.74.29c.65.07.79.21.79.5s-.29.5-1,.5c-3.67,0-7.85-.21-8.21-.21s-4.46.21-6.48.21c-.65,0-1.15-.14-1.15-.5s.29-.5.94-.5a8.87,8.87,0,0,0,1.72-.22c1.23-.29,1.44-1.73,1.66-3.46a127.71,127.71,0,0,0,.36-13.1Z"/><path class="cls-21" d="M1204.12,37.8c0,8.28.29,12.46,1.51,13.61s2.59,1.44,7.56,1.44c3.17,0,6,0,7.63-2a9.21,9.21,0,0,0,1.37-3.6c.07-.58.22-.87.58-.87s.43.22.43.94a46.52,46.52,0,0,1-.86,6.48c-.44,1.44-.36,1.8-3.82,1.8-4.9,0-10.3-.36-17.5-.36-2.37,0-3.81.21-6.33.21-.72,0-1.16-.14-1.16-.57,0-.22.22-.43.8-.43a6.68,6.68,0,0,0,1.72-.15c1.23-.21,1.66-1.65,1.88-3.38.43-2.74.28-7.71.28-13.25V26.86c0-9.51,0-11.09-.14-13s-.43-3.32-2.88-3.6a12.47,12.47,0,0,0-1.8-.08c-.5,0-.79-.21-.79-.5s.36-.5,1.08-.5c3,0,7.34.21,7.49.21,1,0,5.4-.21,7.41-.21.72,0,.94.21.94.5s-.36.5-.79.5-1.23.08-2,.15c-2,.28-2.45,1.44-2.59,3.53-.14,1.94-.07,3.52-.07,13Z"/><path class="cls-22" d="M1249.05,37.8c0,8.28.28,12.46,1.51,13.61s2.59,1.44,7.56,1.44c3.17,0,6.05,0,7.63-2a9.21,9.21,0,0,0,1.37-3.6c.07-.58.22-.87.58-.87s.43.22.43.94a45.28,45.28,0,0,1-.87,6.48c-.43,1.44-.36,1.8-3.81,1.8-4.9,0-10.3-.36-17.5-.36-2.38,0-3.82.21-6.34.21-.72,0-1.15-.14-1.15-.57,0-.22.22-.43.79-.43a6.72,6.72,0,0,0,1.73-.15c1.23-.21,1.66-1.65,1.87-3.38.44-2.74.29-7.71.29-13.25V26.86c0-9.51,0-11.09-.14-13s-.43-3.32-2.88-3.6a12.61,12.61,0,0,0-1.8-.08c-.51,0-.8-.21-.8-.5s.36-.5,1.08-.5c3,0,7.35.21,7.49.21,1,0,5.4-.21,7.42-.21.72,0,.94.21.94.5s-.36.5-.8.5-1.22.08-1.94.15c-2,.28-2.45,1.44-2.59,3.53-.15,1.94-.07,3.52-.07,13Z"/><path class="cls-23" d="M1291.24,37.88a.75.75,0,0,0-.72.57l-3.17,9a18.26,18.26,0,0,0-1.23,5.11c0,1.3.8,1.88,2.38,1.88h.5c.65,0,.87.21.87.5s-.58.5-1.08.5c-1.59,0-4.9-.21-5.69-.21s-3.89.21-6.91.21c-.8,0-1.16-.14-1.16-.5s.29-.5.87-.5a9.12,9.12,0,0,0,1.44-.08c3.1-.28,4.32-2.66,5.54-5.68l14.4-37.95c.8-2.09,1-2.45,1.52-2.45s.65.29,1.44,2.3c1,2.38,10.8,27.51,14.61,36.51,2.38,5.69,4.47,6.63,5.48,7a6.84,6.84,0,0,0,2.45.36c.5,0,.86.14.86.5s-.29.5-1.08.5-6.12,0-11-.14c-1.36-.07-1.8-.14-1.8-.5a.61.61,0,0,1,.51-.51c.29-.14.72-.5.29-1.58l-5.69-14.47a.64.64,0,0,0-.58-.36Zm12.24-2.52c.29,0,.29-.22.21-.44L1298,19c-.36-1-.43-1-.79,0l-5.4,15.91c-.14.29,0,.44.15.44Z"/></g></g></svg>