<svg xmlns="http://www.w3.org/2000/svg" xmlns:xlink="http://www.w3.org/1999/xlink" viewBox="0 0 100 115.44"><defs><style>.cls-1{fill:url(#未命名漸層_19);}.cls-2{fill:url(#未命名漸層_19-2);}.cls-3{fill:url(#未命名漸層_19-3);}.cls-4{fill:url(#未命名漸層_19-4);}.cls-5{fill:url(#未命名漸層_19-5);}.cls-6{fill:url(#未命名漸層_19-6);}.cls-7{fill:url(#未命名漸層_19-7);}.cls-8{fill:url(#未命名漸層_19-8);}.cls-9{fill:url(#未命名漸層_19-9);}.cls-10{fill:url(#未命名漸層_19-10);}.cls-11{fill:url(#未命名漸層_19-11);}.cls-12{fill:url(#未命名漸層_19-12);}.cls-13{fill:url(#未命名漸層_19-13);}.cls-14{fill:url(#未命名漸層_19-14);}.cls-15{fill:url(#未命名漸層_19-15);}.cls-16{fill:url(#未命名漸層_19-16);}.cls-17{fill:url(#未命名漸層_19-17);}.cls-18{fill:url(#未命名漸層_19-18);}.cls-19{fill:url(#未命名漸層_19-19);}.cls-20{fill:url(#未命名漸層_19-20);}.cls-21{fill:url(#未命名漸層_19-21);}.cls-22{fill:url(#未命名漸層_19-22);}.cls-23{fill:url(#未命名漸層_19-23);}.cls-24{fill:url(#未命名漸層_19-24);}.cls-25{fill:url(#未命名漸層_19-25);}.cls-26{fill:url(#未命名漸層_19-26);}.cls-27{fill:url(#未命名漸層_19-27);}</style><linearGradient id="未命名漸層_19" x1="50.25" y1="115.69" x2="50.25" y2="0.25" gradientUnits="userSpaceOnUse"><stop offset="0" stop-color="#4ca2be"/><stop offset="1" stop-color="#7cd4ea"/></linearGradient><linearGradient id="未命名漸層_19-2" x1="50.25" y1="109.51" x2="50.25" y2="13.97" xlink:href="#未命名漸層_19"/><linearGradient id="未命名漸層_19-3" x1="70.04" y1="80.14" x2="70.04" y2="57.52" xlink:href="#未命名漸層_19"/><linearGradient id="未命名漸層_19-4" x1="69.97" y1="63.79" x2="69.97" y2="54.27" xlink:href="#未命名漸層_19"/><linearGradient id="未命名漸層_19-5" x1="68.67" y1="83.76" x2="68.67" y2="76.24" xlink:href="#未命名漸層_19"/><linearGradient id="未命名漸層_19-6" x1="50.46" y1="33.8" x2="50.46" y2="23.76" xlink:href="#未命名漸層_19"/><linearGradient id="未命名漸層_19-7" x1="50.46" y1="101.08" x2="50.46" y2="91.04" xlink:href="#未命名漸層_19"/><linearGradient id="未命名漸層_19-8" x1="62.22" y1="55.69" x2="62.22" y2="41.16" xlink:href="#未命名漸層_19"/><linearGradient id="未命名漸層_19-9" x1="63.43" y1="53.67" x2="63.43" y2="51.41" xlink:href="#未命名漸層_19"/><linearGradient id="未命名漸層_19-10" x1="62.01" y1="54.17" x2="62.01" y2="51.66" xlink:href="#未命名漸層_19"/><linearGradient id="未命名漸層_19-11" x1="60.51" y1="55.08" x2="60.51" y2="51.7" xlink:href="#未命名漸層_19"/><linearGradient id="未命名漸層_19-12" x1="57.36" y1="34.75" x2="57.36" y2="30.63" xlink:href="#未命名漸層_19"/><linearGradient id="未命名漸層_19-13" x1="57.36" y1="94.21" x2="57.36" y2="90.08" xlink:href="#未命名漸層_19"/><linearGradient id="未命名漸層_19-14" x1="58.92" y1="55.4" x2="58.92" y2="51.41" xlink:href="#未命名漸層_19"/><linearGradient id="未命名漸層_19-15" x1="54.65" y1="55.34" x2="54.65" y2="40.92" xlink:href="#未命名漸層_19"/><linearGradient id="未命名漸層_19-16" x1="50.46" y1="30.74" x2="50.46" y2="24.81" xlink:href="#未命名漸層_19"/><linearGradient id="未命名漸層_19-17" x1="50.46" y1="100.03" x2="50.46" y2="94.09" xlink:href="#未命名漸層_19"/><linearGradient id="未命名漸層_19-18" x1="50.46" y1="24.03" x2="50.46" y2="22.24" xlink:href="#未命名漸層_19"/><linearGradient id="未命名漸層_19-19" x1="50.46" y1="102.59" x2="50.46" y2="100.81" xlink:href="#未命名漸層_19"/><linearGradient id="未命名漸層_19-20" x1="46.76" y1="76.31" x2="46.76" y2="63.45" xlink:href="#未命名漸層_19"/><linearGradient id="未命名漸層_19-21" x1="46.49" y1="48.7" x2="46.49" y2="41.59" xlink:href="#未命名漸層_19"/><linearGradient id="未命名漸層_19-22" x1="45.17" y1="55.4" x2="45.17" y2="47.22" xlink:href="#未命名漸層_19"/><linearGradient id="未命名漸層_19-23" x1="43.56" y1="34.75" x2="43.56" y2="30.63" xlink:href="#未命名漸層_19"/><linearGradient id="未命名漸層_19-24" x1="43.56" y1="94.21" x2="43.56" y2="90.08" xlink:href="#未命名漸層_19"/><linearGradient id="未命名漸層_19-25" x1="42.19" y1="48.83" x2="42.19" y2="43.48" xlink:href="#未命名漸層_19"/><linearGradient id="未命名漸層_19-26" x1="28.34" y1="80.91" x2="28.34" y2="59.86" xlink:href="#未命名漸層_19"/><linearGradient id="未命名漸層_19-27" x1="38.05" y1="55.69" x2="38.05" y2="41.1" xlink:href="#未命名漸層_19"/></defs><title>資產 49</title><g id="圖層_2" data-name="圖層 2"><g id="分離模式"><path class="cls-1" d="M99,14.25c1.8,2.61,1.65,48.83-.74,65.86s-28,35.34-48,35.57h-.16c-20-.23-45.57-18.59-48-35.57S-.33,16.86,1.46,14.25c1.15-1.66,5.43,0,11.35,1.4a8,8,0,0,1-.75-6.6c.75-2.08,3.16-3,5.49-2.72a18.38,18.38,0,0,1,6.66,2.6,12.79,12.79,0,0,1,7.3-.88,4.81,4.81,0,0,1-1.65-3.61A4.2,4.2,0,0,1,32.74.53a4.54,4.54,0,0,1,5.38,1.74,2.48,2.48,0,0,1,.35,2,12.18,12.18,0,0,1,6.32,0,8.48,8.48,0,0,1,5.37,3.63l.09,0,.09,0a8.48,8.48,0,0,1,5.38-3.63,12.14,12.14,0,0,1,6.31,0,2.48,2.48,0,0,1,.35-2A4.54,4.54,0,0,1,67.76.53a4.2,4.2,0,0,1,2.88,3.91A4.81,4.81,0,0,1,69,8.05a12.79,12.79,0,0,1,7.3.88A18.38,18.38,0,0,1,83,6.33C85.28,6,87.7,7,88.44,9.05a8,8,0,0,1-.75,6.6C93.61,14.27,97.89,12.59,99,14.25Zm.12,28.6,0-3.57c0-1.19,0-2.38,0-3.57s-.05-2.38-.09-3.57c-.09-2.37-.21-4.75-.41-7.13-.14,2.38-.21,4.76-.25,7.14,0,1.19,0,2.38,0,3.57v3.56l0,3.57c0,1.19,0,2.38.06,3.56q.07,3.57.21,7.14c.26-2.37.38-4.75.45-7.13C99.12,45.23,99.13,44,99.15,42.85Zm-1.3,0,0-3.57c0-1.19,0-2.38,0-3.57s0-2.38-.1-3.57c-.08-2.37-.2-4.75-.41-7.13-.14,2.38-.21,4.76-.25,7.14,0,1.19,0,2.38,0,3.57v3.56l0,3.57c0,1.19,0,2.38.06,3.56q.07,3.57.2,7.14c.27-2.37.38-4.75.46-7.13C97.82,45.23,97.83,44,97.85,42.85Zm-1.35,0,0-3.57c0-1.19,0-2.38,0-3.57s0-2.38-.1-3.57c-.09-2.37-.2-4.75-.41-7.13-.14,2.38-.21,4.76-.25,7.14,0,1.19,0,2.38,0,3.57v3.56l0,3.57c0,1.19,0,2.38.06,3.56,0,2.38.11,4.76.2,7.14.27-2.37.38-4.75.46-7.13C96.47,45.23,96.48,44,96.5,42.85ZM93.33,78c2.14-15.27,2.28-56.71.67-59s-10,2.65-20.24,2.49c-9.14-.13-23.38-8.36-23.51-8.28-.13-.08-14.37,8.15-23.51,8.28-10.19.16-18.63-4.82-20.24-2.49S5,62.72,7.17,78s25.07,32.13,43,32.34h.15C68.26,110.12,91.19,93.22,93.33,78ZM87.06,14.62c1.47-3,1-8.26-4.16-7.39a17.22,17.22,0,0,0-5.72,2.22,6.37,6.37,0,0,1,1.3,1.18,5,5,0,0,1,.84,1.48,7.45,7.45,0,0,1,.45-.83c.32-.5,1.19,0,.87.45-1.28,2-1,3.9,1.11,5,1.5-.19,3-.45,4.32-.73A5.45,5.45,0,0,0,87.06,14.62Zm-6.78,2.27A3.7,3.7,0,0,1,79,15.25c0,.07-.09.14-.14.2a4.57,4.57,0,0,1-2,1.59C78.05,17,79.18,17,80.28,16.89Zm-2.49-2.05a2.89,2.89,0,0,0-.36-3.53A5.24,5.24,0,0,0,76,10.13c-1.29.78-2.56,1.6-3.87,2.32a.59.59,0,0,1,.35.54,2.86,2.86,0,0,0,2,3.13A3.06,3.06,0,0,0,77.79,14.84Zm-1.72,90.9c.85-.55,1.68-1.12,2.47-1.74a42.74,42.74,0,0,1-5.13,3.15A51.79,51.79,0,0,1,68,109.68a52.71,52.71,0,0,1-11.54,3.19,46,46,0,0,1-6,.52H49c-.5,0-1,0-1.49-.05-1-.06-2-.16-3-.31a42.64,42.64,0,0,1-11.4-3.44,66.73,66.73,0,0,1-10.36-6c-1.64-1.14-3.25-2.34-4.81-3.58a58.36,58.36,0,0,1-4.52-3.93,36.39,36.39,0,0,1-4-4.45,22.4,22.4,0,0,1-2.9-5.19c-.37-.92-.66-1.88-1-2.83a28.65,28.65,0,0,1-.82-2.88c-.24-1-.44-2-.62-3s-.35-2-.48-3a54.61,54.61,0,0,0,.84,6,29.94,29.94,0,0,0,.71,2.94c.29,1,.58,1.93.93,2.88A22.64,22.64,0,0,0,9,92a34.7,34.7,0,0,0,3.95,4.61c1.44,1.42,3,2.75,4.53,4s3.19,2.47,4.84,3.63,3.35,2.25,5.1,3.26a57.06,57.06,0,0,0,5.39,2.77,42.09,42.09,0,0,0,11.62,3.41,36.17,36.17,0,0,0,6.06.26,47,47,0,0,0,6-.62A49.26,49.26,0,0,0,62.39,112a54.08,54.08,0,0,0,5.68-2,55.52,55.52,0,0,0,5.42-2.66C74.37,106.8,75.23,106.28,76.07,105.74ZM74.29,10.1,75,9.66a13.65,13.65,0,0,0-7.69-.15A8.58,8.58,0,0,0,62,12.69a12.16,12.16,0,0,0,3,.8C68.42,13.93,71.56,11.67,74.29,10.1Zm-1.35,6.58A4,4,0,0,1,71.2,13a17.13,17.13,0,0,1-3.15,1.22,8.64,8.64,0,0,1-3.36.18v0A47.68,47.68,0,0,0,72.94,16.68ZM66.51,8.52c2-.88,3.11-2.37,3.08-4.07a3.23,3.23,0,0,0-2.21-3.06A3.44,3.44,0,0,0,63.3,2.71a1.34,1.34,0,0,0,.26,2,1.15,1.15,0,0,0,1.18.19,1,1,0,0,0,.5-.93h0A.7.7,0,0,1,64.75,3a.84.84,0,0,1,1-.4.7.7,0,0,1,.46.93l0,0a.61.61,0,0,1,0,.18,1.91,1.91,0,0,1-1,1.9,1.76,1.76,0,0,1-.69.21l.06.08a3.21,3.21,0,0,1,.72,2.94Q65.91,8.68,66.51,8.52Zm0,100.07a51.86,51.86,0,0,0,5.06-2.24A60.28,60.28,0,0,1,61.12,110c-.45.11-.89.23-1.34.32l-1.35.29c-.45.09-.9.16-1.35.24l-.68.11-.68.09a37.11,37.11,0,0,1-5.47.33l-1.37-.06c-.23,0-.46,0-.68,0l-.68-.07-.68-.06c-.23,0-.46-.07-.68-.1l-1.36-.21-1.34-.27-.67-.14-.66-.18-1.32-.35-1.31-.42-.65-.21-.64-.23-1.29-.48L35.65,108l-.63-.26-.62-.29-1.24-.58-1.22-.63c-.82-.41-1.61-.88-2.41-1.32a80.82,80.82,0,0,1-9.1-6.17c-.74-.55-1.44-1.14-2.15-1.72-.36-.28-.7-.59-1-.89l-1-.92c-.66-.63-1.33-1.25-2-1.92s-1.24-1.34-1.84-2l-.85-1.08-.8-1.11c-.25-.38-.5-.76-.74-1.15s-.47-.78-.68-1.18-.43-.81-.61-1.23l-.28-.62-.26-.64c-.34-.85-.63-1.71-.91-2.59-.15-.44-.3-.88-.42-1.31-.08-.22-.12-.44-.18-.66s-.1-.45-.15-.67c-.19-.9-.33-1.81-.44-2.72s-.2-1.83-.26-2.75-.13-1.84-.15-2.76a53.69,53.69,0,0,0,.2,5.53c.08.92.2,1.84.36,2.75,0,.23.08.46.13.69s.09.45.16.68c.12.45.25.89.38,1.33.26.89.54,1.77.87,2.64L8,85l.28.64c.17.43.39.84.59,1.26s.45.82.67,1.23.48.79.74,1.19l.79,1.15.85,1.1a41.81,41.81,0,0,0,3.78,4.09l1,.93c.35.31.69.63,1.05.92.71.59,1.42,1.19,2.15,1.75l1.1.86,1.11.82c.38.27.74.56,1.12.82l1.14.79.58.4.58.38,1.16.76c.39.25.79.48,1.18.72s.79.49,1.2.72c.81.44,1.61.92,2.44,1.33l1.24.63,1.26.58.63.3.65.26,1.28.54,1.31.48.66.23c.22.08.44.14.66.21l1.34.41,1.35.35.67.17.69.13c.45.09.91.19,1.37.27l1.38.2c.23,0,.46.07.69.09l.7,0,.69.06c.23,0,.46,0,.7,0l1.39,0a36.76,36.76,0,0,0,5.55-.44l.69-.1.68-.13c.45-.09.91-.17,1.36-.27l1.35-.31.68-.17.67-.18Q63.89,109.58,66.48,108.59ZM66,109.71c1.75-.61,3.48-1.29,5.16-2.06A68.87,68.87,0,0,1,60.56,111a46.59,46.59,0,0,1-10.94,1.33,36.48,36.48,0,0,1-10.81-1.83,52.31,52.31,0,0,1-10-4.52,81.51,81.51,0,0,1-9.15-6.18c-1.46-1.12-2.89-2.29-4.24-3.53a44.71,44.71,0,0,1-3.82-4,27.93,27.93,0,0,1-3.1-4.53A25.56,25.56,0,0,1,7.3,85.24c-.34-.85-.63-1.73-.92-2.61-.14-.44-.3-.88-.42-1.31s-.24-.89-.34-1.34c-.19-.9-.33-1.81-.44-2.73s-.2-1.83-.26-2.76-.13-1.84-.15-2.77A51.66,51.66,0,0,0,5,77.28q.12,1.38.36,2.76c.08.46.18.92.29,1.37s.26.89.39,1.34c.27.89.55,1.78.88,2.65A24.27,24.27,0,0,0,8,88a28.6,28.6,0,0,0,3.07,4.68,48.25,48.25,0,0,0,8.07,7.71q2.2,1.71,4.5,3.29c1.54,1,3.11,2,4.73,3s3.27,1.78,5,2.54a45.82,45.82,0,0,0,5.23,2,35.91,35.91,0,0,0,11,1.72,39.84,39.84,0,0,0,5.56-.46c.93-.13,1.84-.29,2.75-.48s1.82-.38,2.72-.62C62.45,110.86,64.22,110.31,66,109.71ZM64.11,9.23a2.25,2.25,0,0,0-.28-2.76C62.46,4.79,59.52,4.26,56,5.06a7.49,7.49,0,0,0-4.76,3.2l1.95,1a2.7,2.7,0,0,1,1.28-2.82c1.62-1.27,4.66-1.32,5.33.92v0a.45.45,0,0,1,.21.39,2.25,2.25,0,0,0,1.56,2.45,2.29,2.29,0,0,0,1.3,0,8.61,8.61,0,0,1,1-.62A3.24,3.24,0,0,0,64.11,9.23ZM61.7,11.17a2.23,2.23,0,0,1-.45-.08,3.07,3.07,0,0,1-2-1.78,3.38,3.38,0,0,1-.56.5,2.29,2.29,0,0,1-1,.42,23,23,0,0,0,3.22,2A9.43,9.43,0,0,1,61.7,11.17ZM59,7.74A.53.53,0,0,1,59,7.52a2.22,2.22,0,0,0-1.68-1.35,3.67,3.67,0,0,0-3.54,2,1.83,1.83,0,0,0,0,1.47c1.18.59,2.58,1.27,4.14,2a23.07,23.07,0,0,1-2-1.45.36.36,0,0,1,0-.57c0-.29.39-.55.6-.26.59.82,1.68,0,2.13-.41a1.72,1.72,0,0,0,.3-.44A4.32,4.32,0,0,1,59,7.74ZM47.35,9.27l1.95-1a7.49,7.49,0,0,0-4.76-3.2C41,4.26,38,4.79,36.67,6.47a2.25,2.25,0,0,0-.28,2.76,2.48,2.48,0,0,0,.25.3,9,9,0,0,1,1.1.68,2.2,2.2,0,0,0,1.22,0,2.23,2.23,0,0,0,1.56-2.45.47.47,0,0,1,.21-.39v0c.67-2.24,3.71-2.19,5.33-.92A2.7,2.7,0,0,1,47.35,9.27Zm-.69.35a1.83,1.83,0,0,0,0-1.47,3.67,3.67,0,0,0-3.54-2,2.22,2.22,0,0,0-1.68,1.35.42.42,0,0,1,.08.22,4.28,4.28,0,0,1,0,.73,1.72,1.72,0,0,0,.3.44c.45.46,1.54,1.23,2.13.41.21-.29.64,0,.6.26a.36.36,0,0,1,0,.57c-.6.48-1.26,1-2,1.45C44.08,10.89,45.49,10.2,46.66,9.62Zm-3.8.61a2.34,2.34,0,0,1-1-.42,3.38,3.38,0,0,1-.56-.5,3.08,3.08,0,0,1-2,1.78l-.42.08a6.64,6.64,0,0,1,.81,1A22.29,22.29,0,0,0,42.86,10.23ZM36.94,4.67a1.34,1.34,0,0,0,.26-2,3.43,3.43,0,0,0-4.08-1.32,3.25,3.25,0,0,0-2.21,3.06c0,1.7,1.12,3.19,3.08,4.07.4.11.78.22,1.14.35a3.24,3.24,0,0,1,.72-2.93l.06-.08a1.76,1.76,0,0,1-.69-.21,1.92,1.92,0,0,1-1-1.9.61.61,0,0,1,.05-.18l0,0a.7.7,0,0,1,.46-.93.84.84,0,0,1,1,.4.7.7,0,0,1-.46.94h0a1,1,0,0,0,.5.93A1.15,1.15,0,0,0,36.94,4.67Zm-1.4,8.82a12.65,12.65,0,0,0,3-.8,8.38,8.38,0,0,0-5.37-3.18,13.65,13.65,0,0,0-7.69.15l.75.44C28.94,11.67,32.08,13.93,35.54,13.49Zm.28.88v0a8.64,8.64,0,0,1-3.36-.18A17.41,17.41,0,0,1,29.3,13a4,4,0,0,1-1.73,3.73A47.83,47.83,0,0,0,35.82,14.37ZM26,16.12A2.85,2.85,0,0,0,28,13a.61.61,0,0,1,.35-.54c-1.31-.72-2.58-1.54-3.87-2.32a5.24,5.24,0,0,0-1.41,1.18,2.89,2.89,0,0,0-.36,3.53A3.07,3.07,0,0,0,26,16.12Zm-5.79.77c1.1.1,2.23.15,3.38.15a4.57,4.57,0,0,1-2-1.59c-.05-.06-.09-.13-.14-.2A3.7,3.7,0,0,1,20.22,16.89ZM22,10.63a6.37,6.37,0,0,1,1.3-1.18A17.22,17.22,0,0,0,17.6,7.23c-5.14-.87-5.63,4.41-4.16,7.39a5.45,5.45,0,0,0,1,1.39c1.37.28,2.82.54,4.32.73,2.12-1.11,2.39-3,1.11-5-.32-.5.55-1,.87-.45a7.45,7.45,0,0,1,.45.83A5,5,0,0,1,22,10.63Z" transform="translate(-0.25 -0.25)"/><path class="cls-2" d="M93.29,19.67c1.58,2.3,1.45,43.07-.66,58.09S68,109.3,50.33,109.51h-.15C32.53,109.3,10,92.74,7.87,77.76S5.63,22,7.21,19.67s9.89,2.6,19.91,2.45c9-.14,23-8.23,23.13-8.15.13-.08,14.14,8,23.13,8.15C83.4,22.27,91.71,17.37,93.29,19.67Zm-1.61,57.7c2.07-14.68,2.2-54.55.65-56.79S82.66,23.12,72.86,23c-8.78-.13-22.48-8-22.61-8s-13.82,7.84-22.62,8c-9.79.15-17.91-4.64-19.46-2.39s-1.42,42.11.65,56.79,24.11,30.9,41.36,31.1h.14C67.57,108.27,89.63,92,91.68,77.37Z" transform="translate(-0.25 -0.25)"/><path class="cls-3" d="M88,71.42v.08s-.12,0-.13,0c-.1.22-.33.18-.5.26A2.86,2.86,0,0,0,87,72a.23.23,0,0,0-.1.27.47.47,0,0,1,0,.17l.66.26a.37.37,0,0,1-.37.23l-.61-.05s-.09,0-.13,0a2.51,2.51,0,0,1-.82.06.61.61,0,0,0-.35.09,1.24,1.24,0,0,0-.27.17.58.58,0,0,0-.19.34c0,.19-.14.27-.31.22a.42.42,0,0,0-.31.06l-.08-.06c-.19-.14-.28-.14-.45,0a.38.38,0,0,1-.22.13.47.47,0,0,0-.35.28,1.05,1.05,0,0,1-.72.61L82,75a.63.63,0,0,1-.19,0,.8.8,0,0,0-.51.19,1.21,1.21,0,0,1-.14.1,1.59,1.59,0,0,0-.43.39,1.39,1.39,0,0,1-1,.56,1.85,1.85,0,0,1-.81,0,.13.13,0,0,0-.09,0,.8.8,0,0,1-.78,0c-.19-.06-.37-.14-.56-.22A.22.22,0,0,1,77.3,76a2.91,2.91,0,0,0-1-.53,2.51,2.51,0,0,0-.46-.16.42.42,0,0,1-.25-.24,1.62,1.62,0,0,0-.57-.65l-.1,0a.94.94,0,0,0-.56-.28c-.17,0-.33-.1-.49-.15l-.23-.07a1,1,0,0,1-.32-.13,1,1,0,0,0-.51-.18,2.9,2.9,0,0,1-.42-.12,1.62,1.62,0,0,0-.68-.16,6.17,6.17,0,0,1-.75,0,.68.68,0,0,1-.25-.09.9.9,0,0,0-.75,0,1.2,1.2,0,0,0-.38.3.34.34,0,0,1-.41.1.84.84,0,0,1-.58-.48.83.83,0,0,0-.83-.47h-.26a.62.62,0,0,1-.52-.19s0-.07-.08-.08c-.35-.11-.54-.42-.81-.63L66,71.57a2.2,2.2,0,0,1-.71-.53,3.73,3.73,0,0,0-.46-.35,1.58,1.58,0,0,0-.36-.14l-.91-.34a.05.05,0,0,0,0,0c-.35,0-.6-.21-.89-.33a2.11,2.11,0,0,0-.36-.09c-.17,0-.33-.06-.5-.07a.7.7,0,0,0-.67.45,7.25,7.25,0,0,1-.5.73,6,6,0,0,1-.49.64,2.2,2.2,0,0,0-.25.51c-.05.1-.08.2-.13.28a6.6,6.6,0,0,1-.45.78,5.63,5.63,0,0,0-.44.93,4.79,4.79,0,0,1-.33.58c-.14.24-.29.48-.45.7a7.22,7.22,0,0,0-.62,1,.84.84,0,0,1-.18.23.83.83,0,0,0-.29.5.52.52,0,0,1-.08.23,2.21,2.21,0,0,0-.3.45,7.73,7.73,0,0,1-.59.79,2.57,2.57,0,0,0-.28.37,1.19,1.19,0,0,1-.27.28c-.12.12-.26.23-.38.36a1.74,1.74,0,0,1-1,.46l-.41.09a1.13,1.13,0,0,1-.77,0,.28.28,0,0,1-.13-.09c-.24-.25-.48-.51-.73-.76V79c.14-.16.35-.19.51-.3a8,8,0,0,0,.68-.45,10.8,10.8,0,0,0,.89-.76c.26-.24.5-.51.75-.77a2.49,2.49,0,0,0,.23-.23c.12-.15.21-.3.32-.45a4.15,4.15,0,0,1,.27-.32,3.21,3.21,0,0,0,.54-.73c.12-.21.3-.4.43-.61a5.21,5.21,0,0,0,.67-1,1,1,0,0,1,.14-.22c.18-.26.37-.51.56-.77s.28-.43.43-.64.14-.14.21-.22l.38-.48a2.61,2.61,0,0,0,.37-.62c0-.05.07-.09.09-.13s.1-.11.1-.17a2.25,2.25,0,0,1,.23-.66.39.39,0,0,0-.05-.45.23.23,0,0,1,.07-.39,2.43,2.43,0,0,1,.7-.3c.24,0,.4,0,.46-.41,0-.08,0-.16,0-.24.06-.26,0-.38-.3-.38H59.71a.39.39,0,0,0-.37.17,1.47,1.47,0,0,1-.92.47c-.45.1-.9.24-1.36.36a.34.34,0,0,1-.17,0,2,2,0,0,0-.74,0,1.15,1.15,0,0,1-.36-.07c-.2,0-.39-.09-.58-.15a1.12,1.12,0,0,1-.52-.36c-.1-.09,0-.27.18-.32s.62-.16.93-.22.7-.12,1.06-.18l.19-.06.4-.12h.06c.16-.15.36-.1.54-.12s.08,0,.11,0a1.06,1.06,0,0,1,.65-.15.64.64,0,0,0,.24-.1.73.73,0,0,1,.33-.16,4.93,4.93,0,0,0,1-.31,10.77,10.77,0,0,0,1.06-.44l.71-.35c.18-.08.37-.14.56-.21a.72.72,0,0,0,.2-.09c.33-.21.66-.43,1-.66.16-.11.29-.26.44-.38a.72.72,0,0,1,.84-.1,1.93,1.93,0,0,0,.34.11l.63.25.25.08a.35.35,0,0,1,.32.45s0,.09,0,.14c0,.2-.11.28-.31.32a.92.92,0,0,0-.23.09c-.21.13-.42.27-.64.39a1.79,1.79,0,0,1-.7.25.73.73,0,0,0-.57.38,3.32,3.32,0,0,1-.74.71,7.84,7.84,0,0,0-.61.54.29.29,0,0,0-.07.37.39.39,0,0,0,.34.16l.94-.07a.78.78,0,0,1,.22,0,1.84,1.84,0,0,0,.38.08,4.12,4.12,0,0,1,.86.19,4.66,4.66,0,0,0,.63.12,1.4,1.4,0,0,0,.76-.2c.14-.07.27-.17.41-.25a.45.45,0,0,0,.29-.47.28.28,0,0,1,.12-.27c.16-.14.31-.29.46-.44l.1,0a1.21,1.21,0,0,0,.16.16c.11.08.22.2.36.13s.1-.22.08-.34a5.77,5.77,0,0,1-.09-1.1,6.47,6.47,0,0,1,0-.88.32.32,0,0,1,.13-.24.36.36,0,0,0,.18-.37,1.13,1.13,0,0,0,0-.26h.2c0,.14,0,.27,0,.4s.13,0,.13-.08,0-.22,0-.33.12-.48.13-.73h.08v0c0,.24,0,.47,0,.7a2.91,2.91,0,0,1-.16.82,8.25,8.25,0,0,0-.35,1.2c0,.18,0,.38-.06.57a.32.32,0,0,0,.13.29.71.71,0,0,0,.13-.12,4.24,4.24,0,0,1,1.06-.82.69.69,0,0,0,.13-.11c.22-.22.45-.42.66-.65s.47-.35.6-.63a.91.91,0,0,1,.21-.23c.24-.22.47-.45.72-.65s.32-.47.54-.65l.3-.23a1,1,0,0,0,.31-.38,5,5,0,0,1,.32-.48c.11-.23.21-.48.31-.73a.11.11,0,0,0,0-.08,1.31,1.31,0,0,0-.42-.82,1.59,1.59,0,0,0-.4-.14c-.08,0-.17,0-.19-.14a.24.24,0,0,1,.13-.26.36.36,0,0,1,.35-.06.76.76,0,0,0,.65-.12,2.81,2.81,0,0,1,.84-.3,5.59,5.59,0,0,0,.71-.15.9.9,0,0,0,.24-.12,4.52,4.52,0,0,1,1.33-.72c.37-.13.72-.3,1.1-.4a2.16,2.16,0,0,1,1.28-.06,1.72,1.72,0,0,1,.85.52,2.09,2.09,0,0,0,.22.2,1,1,0,0,1,.29.75,4.83,4.83,0,0,1-.3,1.26,1.06,1.06,0,0,1-.29.44,1.32,1.32,0,0,1-.42.17,2.14,2.14,0,0,1-1.15,0c-.2,0-.4,0-.59-.07h-.09c-.25.08-.5.14-.73.24a3.35,3.35,0,0,0-.53.28c-.23.14-.48.28-.7.44a6.53,6.53,0,0,0-.77.62,2.05,2.05,0,0,0-.39.44c-.12.21-.26.41-.4.61a2.2,2.2,0,0,1-.26.27c-.11.11-.25.19-.26.38s-.08.13-.13.17A3.84,3.84,0,0,0,74,65c-.17.17-.33.35-.49.53l-.66.75c-.12.15-.21.32-.34.46a2.07,2.07,0,0,1-.24.17l-.41.37c-.14.12-.26.26-.4.37s-.52.39-.76.6a4.66,4.66,0,0,0-.54.55c-.14.16-.12.21,0,.36a1.84,1.84,0,0,0,.51.41.61.61,0,0,1,.24.26.58.58,0,0,0,.38.26,1.52,1.52,0,0,1,.5.23,2.12,2.12,0,0,0,.6.2l.66.16.7.11.43.06a1.38,1.38,0,0,0,.2,0,.86.86,0,0,1,.47.09.64.64,0,0,0,.24,0c.34,0,.67.08,1,.11a1.91,1.91,0,0,0,.79,0,.2.2,0,0,1,.11,0,1.44,1.44,0,0,0,.86-.22,1.37,1.37,0,0,1,.57-.14,1.86,1.86,0,0,0,.87-.12h.08a2.09,2.09,0,0,0,.61-.08,1.87,1.87,0,0,1,.53,0h1.26a1.07,1.07,0,0,1,.3.06.58.58,0,0,0,.41,0,.35.35,0,0,1,.37,0,.4.4,0,0,0,.19,0,8,8,0,0,1,1.1.08,5.46,5.46,0,0,0,1,.11,1.68,1.68,0,0,1,.36.08l1,.18a1.17,1.17,0,0,1,.24.09,2.1,2.1,0,0,0,.61.09A1.68,1.68,0,0,1,88,71.42Z" transform="translate(-0.25 -0.25)"/><path class="cls-4" d="M71.11,55.46a1.91,1.91,0,0,1,0,1.29,12.23,12.23,0,0,0-.45,1.33,12.53,12.53,0,0,1-.42,1.22A3.79,3.79,0,0,0,70,60.39c0,.19-.07.37-.09.56a2.67,2.67,0,0,0,0,.56,4.49,4.49,0,0,1,0,1.32,1.52,1.52,0,0,0,0,.21H69.7a1.5,1.5,0,0,0,0-.29,4.71,4.71,0,0,1,0-.54.29.29,0,0,0-.17-.24c-.12,0-.22.07-.23.18s-.08.37,0,.51a.71.71,0,0,1,.14.58,4.87,4.87,0,0,0,0,.54h-.2c0-.17,0-.34,0-.51a1.24,1.24,0,0,0,0-.16c-.14.06-.15.17-.16.28s0,.21-.09.29a.24.24,0,0,1-.15-.26,5.94,5.94,0,0,1,.06-1,6.88,6.88,0,0,0,.2-1.35A.28.28,0,0,1,69,61a8.92,8.92,0,0,0,.25-1.25,2.16,2.16,0,0,0,0-.44c0-.26,0-.52,0-.78a1.85,1.85,0,0,0-.11-.74,1.22,1.22,0,0,1,0-.17.52.52,0,0,0-.18-.4c-.2-.14-.19-.34-.16-.55a1.16,1.16,0,0,1,0-.18,2.34,2.34,0,0,0,.13-.91v-.11c0-.17.08-.22.25-.19a.37.37,0,0,0,.5-.38,1.82,1.82,0,0,0,0-.33.31.31,0,0,1,.1-.26H70a.85.85,0,0,0,.37.33,1.05,1.05,0,0,1,.46.4,1.42,1.42,0,0,1,.12.13A1.48,1.48,0,0,1,71.11,55.46Z" transform="translate(-0.25 -0.25)"/><path class="cls-5" d="M70.81,82.19a1.12,1.12,0,0,1-.21.61l-.25.48a.49.49,0,0,1-.35.33,3.39,3.39,0,0,0-.45.15h-.23a1.07,1.07,0,0,1-.24-.46.6.6,0,0,0-.28-.43l0-.05c-.07-.08-.12-.18-.2-.26a3,3,0,0,0-.26-.16l.07-.14a.58.58,0,0,0-.11-.68L68,81.31a.62.62,0,0,0-.28-.22,2,2,0,0,1-.36-.29c-.23-.17-.47-.33-.71-.49-.07,0-.18-.08-.14-.24a.74.74,0,0,0,.21,0,.6.6,0,0,0,.23,0c.26-.12.51-.26.77-.39l.19-.11a.3.3,0,0,0,.12-.33c0-.17,0-.33-.08-.5a.37.37,0,0,1,0-.11,2.36,2.36,0,0,0,0-1.12.67.67,0,0,1,0-.2A.78.78,0,0,0,68,77a.34.34,0,0,1,0-.19c.09-.15.18-.3.28-.45a.17.17,0,0,1,.06-.06c.23-.07.66,0,.7.33s.17.84.25,1.26c0,.18,0,.38.06.57.08.39.18.78.27,1.17,0,.16,0,.31.08.46s.08.2.12.3.09.12.11.19a11.6,11.6,0,0,0,.64,1.27A1.09,1.09,0,0,1,70.81,82.19Z" transform="translate(-0.25 -0.25)"/><path class="cls-6" d="M64.11,32c-.14,1.3,1.91.71,1.67-.69a3,3,0,0,0-1.32-1.67c-.35-.23-1.13-.73-1.58-.51-.63.31-.21,1.15-.2,1.71-1.67-.12-1.39-2.47-2.27-3.36a11.45,11.45,0,0,0-3.83-2.64c.41.35.43,1.29.41,1.78a4.45,4.45,0,0,1-1.05,2.57,7.45,7.45,0,0,1-11,0,4.37,4.37,0,0,1-1-2.57c0-.49,0-1.43.4-1.78a11.4,11.4,0,0,0-3.82,2.64c-.89.89-.61,3.24-2.27,3.36,0-.56.43-1.4-.21-1.71-.44-.22-1.23.28-1.57.51a2.93,2.93,0,0,0-1.33,1.67c-.24,1.4,1.81,2,1.67.69,0,0-.79.13-.73-.39,0-.32.55-.56.82-.54A1.27,1.27,0,0,1,38,32.2c.06,2.41-4,1.89-4.24-.21-.29-2.44,2.15-4.13,5.1-5.76C40,25.55,45.5,23.36,47,23.82a1,1,0,0,1,.68.88.72.72,0,0,1-.33.65c-.47.32-1.51-.44-1-.8a.23.23,0,0,0,.11-.16c-1.63-.73-2.15,1.94-1.83,3a5.42,5.42,0,0,0,1,1.77c1.69,2,5.1,2.4,7.46,1.54A6.49,6.49,0,0,0,54.39,30a4.86,4.86,0,0,0,2-2.59c.32-1.05-.21-3.72-1.84-3a.21.21,0,0,0,.12.16c.48.36-.57,1.12-1,.8a.74.74,0,0,1-.33-.65,1,1,0,0,1,.68-.88c1.46-.46,6.92,1.73,8.15,2.41,2.94,1.63,5.39,3.32,5.09,5.76-.25,2.1-4.3,2.62-4.23.21A1.25,1.25,0,0,1,64,31.07c.26,0,.78.22.82.54C64.9,32.13,64.11,32.05,64.11,32Z" transform="translate(-0.25 -0.25)"/><path class="cls-7" d="M64.11,92.84c0-.06.79-.14.74.39,0,.31-.56.55-.82.53A1.23,1.23,0,0,1,63,92.63c-.07-2.4,4-1.88,4.23.22.3,2.44-2.15,4.13-5.09,5.76-1.23.68-6.69,2.87-8.15,2.4a1,1,0,0,1-.68-.88.73.73,0,0,1,.33-.64c.47-.32,1.52.44,1,.79a.23.23,0,0,0-.12.17c1.63.73,2.16-1.94,1.84-3a4.93,4.93,0,0,0-2-2.6A7,7,0,0,0,53,94.15c-2.36-.87-5.77-.49-7.46,1.54a5.42,5.42,0,0,0-1,1.77c-.32,1.05.2,3.72,1.83,3a.25.25,0,0,0-.11-.17c-.48-.35.56-1.11,1-.79a.7.7,0,0,1,.33.64A1,1,0,0,1,47,101c-1.46.47-6.92-1.72-8.14-2.4-3-1.63-5.39-3.32-5.1-5.76.26-2.1,4.3-2.62,4.24-.22a1.25,1.25,0,0,1-1.06,1.13c-.27,0-.79-.22-.82-.53-.06-.53.73-.45.73-.39.14-1.31-1.91-.71-1.67.68a2.87,2.87,0,0,0,1.33,1.67c.34.23,1.13.74,1.57.51.64-.31.21-1.15.21-1.7,1.66.11,1.38,2.47,2.27,3.35A11.26,11.26,0,0,0,44.34,100c-.4-.35-.42-1.29-.4-1.78a4.32,4.32,0,0,1,1-2.56A7.57,7.57,0,0,1,53.68,94a7.79,7.79,0,0,1,2.26,1.68A4.39,4.39,0,0,1,57,98.21c0,.49,0,1.43-.41,1.78a11.3,11.3,0,0,0,3.83-2.64c.88-.88.6-3.24,2.27-3.35,0,.55-.43,1.39.2,1.7.45.23,1.23-.28,1.58-.51a2.89,2.89,0,0,0,1.32-1.67C66,92.13,64,91.53,64.11,92.84Z" transform="translate(-0.25 -0.25)"/><path class="cls-8" d="M65.81,51.15c0,1,0,1.93-.1,2.75a2.31,2.31,0,0,1-.48,1.44,1.58,1.58,0,0,1-1.12.35,7.41,7.41,0,0,1-1.55-.17.54.54,0,0,1-.41-.56c0-.44.15-.66.47-.66a6.84,6.84,0,0,0,1.41.23.4.4,0,0,0,.4-.23,2.79,2.79,0,0,0,.17-.91c0-.51.05-1.11.05-1.79,0-.41-.18-.62-.54-.62h-4.3a1,1,0,0,1-1.18-1.18V43.06c0-.57.31-.85.94-.85h.89l0-.1c.13-.24.24-.5.36-.78a.64.64,0,0,1,.47-.17.54.54,0,0,1,.4.16.56.56,0,0,1,.15.39.68.68,0,0,1-.1.36l-.06.14h2.45c.6,0,.91.28.91.85V46.2c0,.57-.31.85-.91.85H59.75V48h5.57a.43.43,0,0,1,.49.49c0,.38-.16.57-.49.57H59.75v.43c0,.32.15.47.43.47h4.53C65.45,49.92,65.81,50.33,65.81,51.15ZM64,45.58V45H59.75v.55c0,.32.15.48.43.48h3.38C63.83,46.06,64,45.9,64,45.58Zm0-1.49v-.41c0-.34-.14-.51-.41-.51H60.18c-.28,0-.43.17-.43.51v.41Z" transform="translate(-0.25 -0.25)"/><path class="cls-9" d="M64.11,53a1.12,1.12,0,0,1,.06.35c0,.25-.18.37-.55.37a.4.4,0,0,1-.38-.29,6.76,6.76,0,0,0-.5-1.49.7.7,0,0,1-.06-.23c0-.17.13-.25.39-.25a.54.54,0,0,1,.35.13A6.17,6.17,0,0,1,64.11,53Z" transform="translate(-0.25 -0.25)"/><path class="cls-10" d="M62.68,53.38a1.12,1.12,0,0,1,.06.35c0,.3-.2.44-.59.44-.18,0-.3-.12-.37-.38a10.63,10.63,0,0,0-.45-1.58.73.73,0,0,1-.06-.26c0-.19.15-.29.45-.29a.47.47,0,0,1,.35.17A7.82,7.82,0,0,1,62.68,53.38Z" transform="translate(-0.25 -0.25)"/><path class="cls-11" d="M60.78,52.09a8.77,8.77,0,0,1,.32,2.44c0,.37-.19.55-.57.55a.43.43,0,0,1-.49-.49,16.87,16.87,0,0,0-.07-2,5,5,0,0,1,0-.52c0-.22.13-.33.38-.33A.48.48,0,0,1,60.78,52.09Z" transform="translate(-0.25 -0.25)"/><path class="cls-12" d="M61,32.18a2.16,2.16,0,0,1-1,2.2,2.33,2.33,0,0,1-1.15.36,5.76,5.76,0,0,1-4-1.8,9.63,9.63,0,0,1-.73-.83l-.32-.45c-.08-.11-.2-.3,0-.34s.15.06.22.13l.31.33c.29.32.56.64.87.93,1,1,2.52,1.86,4,1.35a1.62,1.62,0,0,0,1-2.29,1.39,1.39,0,0,0-.83-.61.94.94,0,0,0-.5,0c-.09,0-.41.21-.3.35s.22,0,.27,0a1,1,0,0,1,.29.08.49.49,0,0,1,.29.47.82.82,0,0,1-.51.76c-.76.23-1.35-.71-1-1.36C58.66,29.87,60.65,30.79,61,32.18Z" transform="translate(-0.25 -0.25)"/><path class="cls-13" d="M60,90.46a2.16,2.16,0,0,1,1,2.2c-.33,1.38-2.32,2.31-3.09.69-.3-.65.29-1.58,1-1.35a.81.81,0,0,1,.51.75.49.49,0,0,1-.29.47,1,1,0,0,1-.29.09s-.24,0-.27,0,.21.33.3.35a.85.85,0,0,0,.5,0,1.43,1.43,0,0,0,.83-.61,1.62,1.62,0,0,0-1-2.29c-1.49-.52-3,.36-4,1.35-.31.29-.58.61-.87.92-.1.12-.2.23-.31.34s-.12.14-.22.13-.12-.23,0-.35.21-.3.32-.44a8.33,8.33,0,0,1,.73-.83,5.77,5.77,0,0,1,4-1.81A2.44,2.44,0,0,1,60,90.46Z" transform="translate(-0.25 -0.25)"/><path class="cls-14" d="M59.49,51.89c0,1.07,0,2.08-.06,3a.6.6,0,0,1-.68.49c-.27,0-.41-.15-.41-.44a1.54,1.54,0,0,1,.06-.43,18,18,0,0,0,.23-2.76.34.34,0,0,1,.39-.36A.42.42,0,0,1,59.49,51.89Z" transform="translate(-0.25 -0.25)"/><path class="cls-15" d="M58.13,42.82a1.63,1.63,0,0,1,.27,1,7.93,7.93,0,0,1-.12,1.29.65.65,0,0,1-.68.44.49.49,0,0,1-.55-.55,9.13,9.13,0,0,0,.17-1.12.43.43,0,0,0-.49-.49H54.87c-.13.45-.27.86-.41,1.23s-.35.83-.54,1.22h1v-.06a14.1,14.1,0,0,0,.48-1.58.37.37,0,0,1,.38-.26.67.67,0,0,1,.37.11.33.33,0,0,1,.19.27.93.93,0,0,1-.06.3c-.14.46-.28.86-.42,1.22h1.57a.44.44,0,0,1,.49.51c0,.37-.17.55-.49.55H55.82v1.7h1.65a.44.44,0,0,1,.49.5c0,.37-.17.56-.49.56H55.82v1.72h1.52q.51,0,.51.48c0,.37-.17.55-.51.55H55.82V54.3h1.71c.37,0,.55.16.55.49a.48.48,0,0,1-.55.55H53.25c-.75,0-1.12-.39-1.12-1.17V48.53l-.3.3a1.06,1.06,0,0,1-.38.07.5.5,0,0,1-.38-.2.58.58,0,0,1-.17-.42.44.44,0,0,1,.2-.38,10.34,10.34,0,0,0,1.32-1.58A16.16,16.16,0,0,0,53.57,44a4.66,4.66,0,0,0,.23-.58h-.68a.54.54,0,0,0-.61.61v1a.49.49,0,0,1-.55.55c-.38,0-.57-.18-.57-.55V43.48a1,1,0,0,1,1.12-1.09h1.61c.11-.38.21-.77.29-1.18a.44.44,0,0,1,.48-.29.6.6,0,0,1,.35.1.34.34,0,0,1,.14.25,1.31,1.31,0,0,1-.06.38c0,.26-.11.5-.16.74h2A1.13,1.13,0,0,1,58.13,42.82ZM54.77,54.3V52.44H53.18v1.29c0,.38.17.57.5.57Zm0-2.89V49.69H53.18v1.72Zm0-2.78v-1.7H53.32a1.94,1.94,0,0,1-.1.17,1,1,0,0,1-.08.11.21.21,0,0,1,0,.14v1.28Z" transform="translate(-0.25 -0.25)"/><path class="cls-16" d="M52.92,29.86c-.11,0-.17.11-.28.06-.81-.33-1.85-2.66-1.85-2.66a20.32,20.32,0,0,1-.18,3.32c0,.16-.09.16-.15.16s-.11,0-.15-.16a21.84,21.84,0,0,1-.18-3.35s-1,2.36-1.86,2.67c-.1,0-.17,0-.27,0a29.18,29.18,0,0,0,2.1-4.67c.07-.19.16-.38.36-.38s.26.11.34.36S52.18,29.07,52.92,29.86Z" transform="translate(-0.25 -0.25)"/><path class="cls-17" d="M52.64,94.92c.11,0,.17,0,.28.06-.74.79-2,4.39-2.12,4.69s-.14.36-.34.36-.29-.2-.36-.38A28.8,28.8,0,0,0,48,95c.1,0,.17-.08.27,0,.84.3,1.86,2.66,1.86,2.66a21.89,21.89,0,0,1,.18-3.35c0-.15.09-.16.15-.16s.11,0,.15.17a20.27,20.27,0,0,1,.18,3.32S51.83,95.25,52.64,94.92Z" transform="translate(-0.25 -0.25)"/><path class="cls-18" d="M50.46,22.24a.9.9,0,1,1-.89.89A.89.89,0,0,1,50.46,22.24Z" transform="translate(-0.25 -0.25)"/><path class="cls-19" d="M50.46,100.81a.89.89,0,1,1-.89.89A.89.89,0,0,1,50.46,100.81Z" transform="translate(-0.25 -0.25)"/><path class="cls-20" d="M50.36,69.37V71c0,.23-.07.45-.09.68s0,.23,0,.34a5.55,5.55,0,0,1-.19,1.08,8.11,8.11,0,0,1-.31.82c-.12.3-.26.59-.36.9a2.88,2.88,0,0,1-.24.5c-.12.2-.34.26-.53.37a.89.89,0,0,1-.18.07l-.76-.09c-.27.24-.5.44-.74.63,0,0-.13,0-.2,0a1,1,0,0,1-.61-.24,1.56,1.56,0,0,0-.43-.21c-.14,0-.28-.09-.32-.28a5.27,5.27,0,0,1-.89-.09A2,2,0,0,1,44,75.2l0,0a5,5,0,0,1-.39-.41.62.62,0,0,1-.09-.27.54.54,0,0,1,0-.22A3.42,3.42,0,0,0,43.28,73a3.71,3.71,0,0,1,0-1.75l0-.2a.44.44,0,0,1,.15-.3c.11-.09.12-.29.17-.44s.07-.17.1-.26a.7.7,0,0,0,0-.14,1.82,1.82,0,0,1,.36-1,.61.61,0,0,0,0-.12l.09-.72c0-.29.08-.59.1-.88a2.47,2.47,0,0,0-.21-1.47.14.14,0,0,1,0-.07c0-.23-.07-.46-.1-.69,0-.06-.11-.12-.15-.18a.25.25,0,0,1,.21-.4,1.2,1.2,0,0,0,.33,0,2.26,2.26,0,0,0,.31-.15c0-.22,0-.39.08-.56s.16-.25.36-.19l.46.13a2.34,2.34,0,0,0,.24.09c.13,0,.23.12.38.08s.14.06.21.1l.37.24q.48.31,1,.66c.1.06.19.14.29.21a.71.71,0,0,0,.37.52.37.37,0,0,1,.15.13,3.78,3.78,0,0,0,.26.43,1.65,1.65,0,0,1,.28.36,4,4,0,0,0,.28.43,8,8,0,0,1,.39.84c.09.24.2.48.3.73a2.5,2.5,0,0,1,.24.86A.18.18,0,0,0,50.36,69.37Z" transform="translate(-0.25 -0.25)"/><path class="cls-21" d="M50.42,48.1a.58.58,0,0,1-.61.6.87.87,0,0,1-.49-.19,7.09,7.09,0,0,1-.91-1.18,10.54,10.54,0,0,1-.95-1.81,12.84,12.84,0,0,1-.67-2.39.47.47,0,0,0-.5-.39H43.1c-.36,0-.53-.2-.53-.61a.47.47,0,0,1,.53-.54h3.58a1.39,1.39,0,0,1,1.35.92,13.26,13.26,0,0,0,.75,2.63,9.9,9.9,0,0,0,.71,1.42c.16.27.41.62.73,1A.66.66,0,0,1,50.42,48.1Z" transform="translate(-0.25 -0.25)"/><path class="cls-22" d="M50.22,54.47a1.21,1.21,0,0,1,.06.38c0,.37-.2.55-.61.55a.75.75,0,0,1-.47-.14l-.73-1.38a35,35,0,0,1-3.62.62c-1.15.17-2.57.32-4.25.46-.36,0-.54-.24-.55-.66a.6.6,0,0,1,.55-.68l.91-.06a46.66,46.66,0,0,0,2.47-6,.52.52,0,0,1,.55-.39,1,1,0,0,1,.55.17.46.46,0,0,1,.25.39.86.86,0,0,1-.12.38,38.69,38.69,0,0,1-2.29,5.29l1.26-.12c1.44-.14,2.67-.3,3.7-.48l-.22-.33c-.35-.57-.74-1.14-1.17-1.72a.72.72,0,0,1-.2-.43.55.55,0,0,1,.62-.63,1.08,1.08,0,0,1,.44.12c.46.62.88,1.21,1.26,1.8A23.08,23.08,0,0,1,50.22,54.47Z" transform="translate(-0.25 -0.25)"/><path class="cls-23" d="M47.09,31.32c.23,0,.11.23,0,.34l-.32.45a8.08,8.08,0,0,1-.72.83,5.79,5.79,0,0,1-4,1.8,2.36,2.36,0,0,1-1.15-.36,2.14,2.14,0,0,1-1-2.2c.32-1.39,2.31-2.31,3.08-.7.31.65-.28,1.59-1.05,1.36a.8.8,0,0,1-.5-.76.49.49,0,0,1,.29-.47.83.83,0,0,1,.28-.08c.05,0,.25,0,.27,0s-.21-.32-.3-.35a.94.94,0,0,0-.5,0,1.39,1.39,0,0,0-.83.61,1.62,1.62,0,0,0,1,2.29c1.48.51,3-.36,4-1.35.3-.29.58-.61.86-.93l.31-.33C46.93,31.38,47,31.3,47.09,31.32Z" transform="translate(-0.25 -0.25)"/><path class="cls-24" d="M47.12,93.17c.08.12.2.31,0,.35s-.16-.06-.23-.13-.21-.22-.31-.34c-.28-.31-.56-.63-.86-.92-1.06-1-2.53-1.87-4-1.35a1.62,1.62,0,0,0-1,2.29,1.43,1.43,0,0,0,.83.61.85.85,0,0,0,.5,0c.09,0,.41-.2.3-.35s-.22,0-.27,0a.84.84,0,0,1-.28-.09.49.49,0,0,1-.29-.47A.78.78,0,0,1,42,92c.77-.23,1.36.7,1.05,1.35C42.26,95,40.27,94,40,92.66a2.14,2.14,0,0,1,1-2.2,2.48,2.48,0,0,1,1.15-.37,5.8,5.8,0,0,1,4,1.81,7.14,7.14,0,0,1,.72.83C46.91,92.87,47,93,47.12,93.17Z" transform="translate(-0.25 -0.25)"/><path class="cls-25" d="M43.59,44a1.16,1.16,0,0,1-.06.32,12.41,12.41,0,0,1-.72,2.5,10.89,10.89,0,0,1-.92,1.84.78.78,0,0,1-.49.2c-.41,0-.61-.18-.61-.55a1.11,1.11,0,0,1,.1-.38,8.38,8.38,0,0,0,.86-1.75,12.91,12.91,0,0,0,.68-2.35c.06-.21.24-.32.55-.32S43.59,43.64,43.59,44Z" transform="translate(-0.25 -0.25)"/><path class="cls-26" d="M41.84,75.13v.23c-.18,0-.36,0-.53,0a3.07,3.07,0,0,0-.52.14,1.11,1.11,0,0,1-.48.09,3,3,0,0,0-1.12.08.43.43,0,0,1-.27,0c-.14-.06-.32,0-.48,0a5.22,5.22,0,0,0-1.31-.07c-.17,0-.34.07-.51.06a2.63,2.63,0,0,1-.61-.12,2.65,2.65,0,0,0-.79-.07l-.33,0-.25.06a1.79,1.79,0,0,1-.4,0l-.78-.14a5.9,5.9,0,0,0-.7-.1,1.76,1.76,0,0,0-.39.06.67.67,0,0,1-.28,0,4.27,4.27,0,0,0-1.33-.13,7.87,7.87,0,0,1-.84,0,1.75,1.75,0,0,0-.65.12,3.58,3.58,0,0,1-.56.16c-.13,0-.24.13-.37.18s-.38.14-.58.21l-.54.32a.92.92,0,0,0-.21.13,2.65,2.65,0,0,1-.79.39,2,2,0,0,1-.71.13,1.79,1.79,0,0,0-.92.25l-.67.45c-.06.05-.1.12-.16.17s-.31.23-.45.36a3.65,3.65,0,0,0-.35.43c-.14.2-.27.41-.4.62,0,.06,0,.14-.09.2s-.17.27-.27.4-.44.48-.62.75-.3.25-.42.41h-.22l-.09,0a3.07,3.07,0,0,1-.53-.06c-.33-.11-.65-.25-1-.39s-.33-.26-.56-.24c0,0,0,0-.06,0a3.46,3.46,0,0,0-.85-.5c-.15-.06-.25-.21-.38-.32a.85.85,0,0,1-.21-.63,4.63,4.63,0,0,0-.1-.65,5,5,0,0,0-.28-.73,4.8,4.8,0,0,0-.41-.78,2.68,2.68,0,0,0-1-.82,1.56,1.56,0,0,1-.67-.55v-.68c0-.12,0-.24.05-.36a2.08,2.08,0,0,1,.16-.88,8,8,0,0,0,.32-1,2.09,2.09,0,0,1,.08-.34L16,70.66a3.12,3.12,0,0,0,.15-.39c.05-.15.07-.3.12-.45s.11-.28.17-.42a2.61,2.61,0,0,1,.19-.27l0,0,.19-.11.38.27a.41.41,0,0,0,.4-.11,1.36,1.36,0,0,0,.42-.64,4.6,4.6,0,0,1,.31-.63c.21-.33.45-.66.67-1,.11-.16.2-.33.32-.48s.24-.28.36-.42.22-.22.3-.34a1.82,1.82,0,0,1,.69-.79h1.07a1.42,1.42,0,0,1,.21.33,3.11,3.11,0,0,1,.06.44,1.75,1.75,0,0,0,.23.7c.18.27.34.56.52.83.06.1.1.23.19.26s.15.15.2.23a3.17,3.17,0,0,1,.52,1.27A11.67,11.67,0,0,0,24,70.46c0,.16.1.31.14.47s0,.32.06.48a1.48,1.48,0,0,0,.1.36.44.44,0,0,0,.44.19l.78-.16h0a8.11,8.11,0,0,1,1.1-.3c0-.18.2-.11.32-.15s.18,0,.22-.06a.59.59,0,0,0,.16-.64c-.08-.21-.14-.42-.2-.63a3,3,0,0,1-.12-.58c0-.2,0-.4,0-.6a.9.9,0,0,1,.42-.87.46.46,0,0,0,.18-.26,3.14,3.14,0,0,0,.12-.51,2.7,2.7,0,0,0,.09-.48,7.63,7.63,0,0,0,0-.83.77.77,0,0,0-.12-.36c-.12-.22-.38-.24-.55-.39a1.32,1.32,0,0,1-.25-.21,1.06,1.06,0,0,1-.13-1c.07-.33.17-.66.22-1a3.23,3.23,0,0,1,.44-1.11c.12-.21.23-.43.37-.63a1.51,1.51,0,0,1,.42-.45,3.57,3.57,0,0,0,.55-.41c.11-.09.2-.22.32-.3a3.89,3.89,0,0,1,.41-.17h0A3.73,3.73,0,0,1,30,60a1.67,1.67,0,0,1,.47.28,6.76,6.76,0,0,1,1.07,1.2,3.37,3.37,0,0,0,.62.68c.07.06.1.15.16.21a2.85,2.85,0,0,0,.92.7s.08,0,.12.08a6.34,6.34,0,0,1,.88.75.73.73,0,0,0,.16.14,1.48,1.48,0,0,1,.44.52,7.59,7.59,0,0,1,.55,1.36,3.1,3.1,0,0,0,.28.58,1.1,1.1,0,0,1,.06.26,6.21,6.21,0,0,1,.12.85,3.5,3.5,0,0,1-.08.65,1.13,1.13,0,0,0,0,.15c0,.5,0,1,0,1.5,0,.31-.06.61-.06.91a1.34,1.34,0,0,0,.1.44.87.87,0,0,0,.15.26,2.25,2.25,0,0,0,1.4-.12.28.28,0,0,1,.12,0,3,3,0,0,0,.84-.25,7.33,7.33,0,0,0,.7-.29,1.08,1.08,0,0,1,.36,0,3.68,3.68,0,0,0,.47,0,1,1,0,0,1,.62.19c.17.08.32.18.49.26a.44.44,0,0,0,.17,0,5.16,5.16,0,0,1,.61,1.22,1.22,1.22,0,0,1,0,.47c-.19.11-.37.19-.54.3a.93.93,0,0,0-.2,1.1,1.58,1.58,0,0,0,.69.61A1.27,1.27,0,0,1,41.84,75.13Z" transform="translate(-0.25 -0.25)"/><path class="cls-27" d="M40.57,48.79a1,1,0,0,1,.15.46.54.54,0,0,1-.61.61.43.43,0,0,1-.4-.29L39,48v7c0,.41-.22.61-.67.61a.54.54,0,0,1-.62-.61V48.34a16.67,16.67,0,0,1-.57,1.86,7.85,7.85,0,0,1-.59,1.57A.73.73,0,0,1,36,52c-.41,0-.62-.19-.62-.56a1,1,0,0,1,.19-.49,29.79,29.79,0,0,0,1.3-3.39,20.9,20.9,0,0,0,.54-2.33H36A.62.62,0,1,1,36,44h1.7V41.71a.55.55,0,0,1,.62-.61c.45,0,.67.21.67.61V44h1.06a.62.62,0,0,1,0,1.23H39V46Z" transform="translate(-0.25 -0.25)"/></g></g></svg>